_RobotoSerifTextWide-HairlineWidth730.ufo
<glyph name="dollar" format="2">
  <advance width="650.1600000000001"/>
  <unicode hex="0024"/>
  <outline>
    <contour>
      <point x="314.9788" y="787.138" type="line"/>
      <point x="314.9788" y="687.448" type="line"/>
      <point x="314.9788" y="678.126" type="line"/>
      <point x="314.9788" y="29.782" type="line"/>
      <point x="314.9788" y="24.552" type="line"/>
      <point x="314.9788" y="-120.0" type="line"/>
      <point x="354.30920000000003" y="-120.0" type="line"/>
      <point x="354.30920000000003" y="21.782" type="line"/>
      <point x="354.30920000000003" y="27.104" type="line"/>
      <point x="354.30920000000003" y="674.402" type="line"/>
      <point x="354.30920000000003" y="687.31" type="line"/>
      <point x="354.30920000000003" y="787.138" type="line"/>
    </contour>
    <contour>
      <point x="341.208" y="39.426" type="curve" smooth="yes"/>
      <point x="234.49439999999998" y="39.426"/>
      <point x="131.6612" y="69.47200000000001"/>
      <point x="83.7244" y="126.334" type="curve"/>
      <point x="75.51" y="109.518"/>
      <point x="89.568" y="99.0"/>
      <point x="104.0464" y="79.828" type="curve"/>
      <point x="104.0464" y="185.564" type="line"/>
      <point x="53.442800000000005" y="185.564" type="line"/>
      <point x="53.442800000000005" y="95.77" type="line"/>
      <point x="104.6372" y="49.092"/>
      <point x="215.728" y="8.184000000000001"/>
      <point x="340.794" y="8.184000000000001" type="curve" smooth="yes"/>
      <point x="484.99440000000004" y="8.184000000000001"/>
      <point x="600.26" y="72.23"/>
      <point x="600.26" y="195.598" type="curve" smooth="yes"/>
      <point x="600.26" y="318.552"/>
      <point x="473.4488" y="355.012"/>
      <point x="368.474" y="379.104" type="curve" smooth="yes"/>
      <point x="248.17520000000002" y="404.92"/>
      <point x="127.674" y="429.69"/>
      <point x="127.674" y="532.862" type="curve" smooth="yes"/>
      <point x="127.674" y="618.264"/>
      <point x="213.3268" y="666.804"/>
      <point x="337.7608" y="666.804" type="curve" smooth="yes"/>
      <point x="437.21680000000003" y="666.804"/>
      <point x="512.7444" y="641.62"/>
      <point x="546.4272000000001" y="603.666" type="curve"/>
      <point x="553.3472" y="625.666"/>
      <point x="535.958" y="649.62"/>
      <point x="518.3571999999999" y="652.574" type="curve"/>
      <point x="518.3571999999999" y="551.574" type="line"/>
      <point x="572.1659999999999" y="551.574" type="line"/>
      <point x="572.1659999999999" y="638.816" type="line"/>
      <point x="534.7288" y="665.0"/>
      <point x="452.3944" y="698.0"/>
      <point x="338.4232" y="698.0" type="curve" smooth="yes"/>
      <point x="193.42520000000002" y="698.0"/>
      <point x="90.24799999999999" y="632.138"/>
      <point x="90.24799999999999" y="529.6320000000001" type="curve" smooth="yes"/>
      <point x="90.24799999999999" y="408.218"/>
      <point x="212.682" y="374.356"/>
      <point x="313.654" y="350.264" type="curve" smooth="yes"/>
      <point x="436.744" y="323.448"/>
      <point x="563.4136" y="305.264"/>
      <point x="563.4136" y="188.184" type="curve" smooth="yes"/>
      <point x="563.4136" y="84.782"/>
      <point x="466.63559999999995" y="39.426"/>
    </contour>
  </outline>
</glyph>
<glyph name="comma" format="2">
  <advance width="243.0876"/>
  <unicode hex="002C"/>
  <outline>
    <contour>
      <point x="90.4024" y="-124.886" type="line"/>
      <point x="149.1552" y="-84.012"/>
      <point x="172.88479999999998" y="-35.184"/>
      <point x="172.88479999999998" y="15.012" type="curve" smooth="yes"/>
      <point x="172.88479999999998" y="50.024"/>
      <point x="153.698" y="66.53"/>
      <point x="128.3364" y="66.53" type="curve" smooth="yes"/>
      <point x="105.72640000000001" y="66.53"/>
      <point x="88.7512" y="50.07"/>
      <point x="88.7512" y="28.334" type="curve" smooth="yes"/>
      <point x="88.7512" y="4.69"/>
      <point x="101.4384" y="-9.862"/>
      <point x="125.80000000000001" y="-9.862" type="curve" smooth="yes"/>
      <point x="142.60320000000002" y="-9.862"/>
      <point x="156.98600000000002" y="-3.0460000000000003"/>
      <point x="159.70080000000002" y="11.815999999999999" type="curve"/>
      <point x="155.6088" y="9.414"/>
      <point x="147.68880000000001" y="6.506"/>
      <point x="148.3512" y="5.138" type="curve"/>
      <point x="148.5996" y="-25.506"/>
      <point x="120.06320000000001" y="-75.598"/>
      <point x="64.8164" y="-108.196" type="curve"/>
    </contour>
  </outline>
</glyph>
<glyph name="two" format="2">
  <advance width="650.1600000000001"/>
  <unicode hex="0032"/>
  <outline>
    <contour>
      <point x="392.8532" y="38.61" type="line" smooth="yes"/>
      <point x="493.0672" y="38.61"/>
      <point x="533.9184" y="45.61"/>
      <point x="538.9212" y="81.518" type="curve" smooth="yes"/>
      <point x="549.2184" y="166.15" type="line"/>
      <point x="576.8808" y="166.15" type="line"/>
      <point x="576.8808" y="0.0" type="line"/>
      <point x="64.8164" y="0.0" type="line"/>
      <point x="64.8164" y="44.254" type="line"/>
      <point x="302.7884" y="168.38"/>
      <point x="508.97080000000005" y="283.242"/>
      <point x="508.97080000000005" y="440.276" type="curve" smooth="yes"/>
      <point x="508.97080000000005" y="543.218"/>
      <point x="433.39772993597444" y="586.666"/>
      <point x="324.99080000000004" y="586.666" type="curve" smooth="yes"/>
      <point x="229.9056" y="586.666"/>
      <point x="162.6228" y="550.528"/>
      <point x="111.56360000000001" y="507.206" type="curve"/>
      <point x="130.1884" y="539.528"/>
      <point x="115.9932" y="545.356"/>
      <point x="142.59040000000002" y="549.31" type="curve"/>
      <point x="142.59040000000002" y="451.896" type="line"/>
      <point x="91.2416" y="451.896" type="line"/>
      <point x="91.2416" y="541.942" type="line"/>
      <point x="133.884" y="574.586"/>
      <point x="213.682" y="618.0"/>
      <point x="324.99080000000004" y="618.0" type="curve" smooth="yes"/>
      <point x="460.95248" y="618.0"/>
      <point x="553.1576" y="553.184"/>
      <point x="553.1576" y="440.092" type="curve" smooth="yes"/>
      <point x="553.1576" y="276.782"/>
      <point x="313.9024" y="132.69"/>
      <point x="100.7108" y="26.874" type="curve"/>
      <point x="97.3336" y="28.92"/>
      <point x="95.122" y="35.472"/>
      <point x="97.41640000000001" y="38.61" type="curve"/>
    </contour>
  </outline>
</glyph>
<glyph name="M" format="2">
  <advance width="1034"/>
  <unicode hex="004D"/>
  <anchor x="495.02560000000005" y="0.0" name="bottom"/>
  <outline>
    <contour>
      <point x="52.36" y="0.0" type="line"/>
      <point x="301.00800000000004" y="0.0" type="line"/>
      <point x="301.00800000000004" y="30.782" type="line"/>
      <point x="296.0052" y="30.782" type="line" smooth="yes"/>
      <point x="258.028" y="30.782"/>
      <point x="201.208" y="33.782000000000004"/>
      <point x="201.208" y="40.782000000000004" type="curve" smooth="yes"/>
      <point x="201.208" y="695.9879999999999" type="line"/>
      <point x="196.8676" y="699.402" type="line"/>
      <point x="498.58599999999996" y="-2.0" type="line"/>
      <point x="533.208" y="-2.0" type="line"/>
      <point x="834.9264000000001" y="698.402" type="line"/>
      <point x="829.5032" y="700.402" type="line"/>
      <point x="829.5032" y="40.782000000000004" type="line" smooth="yes"/>
      <point x="829.5032" y="33.782000000000004"/>
      <point x="783.0632" y="30.782"/>
      <point x="740.0832" y="30.782" type="curve" smooth="yes"/>
      <point x="729.7031999999999" y="30.782" type="line"/>
      <point x="729.7031999999999" y="0.0" type="line"/>
      <point x="981.7044" y="0.0" type="line"/>
      <point x="981.7044" y="30.782" type="line"/>
      <point x="968.8643999999999" y="30.782" type="line" smooth="yes"/>
      <point x="912.0444" y="30.782"/>
      <point x="870.0644" y="37.782000000000004"/>
      <point x="870.0644" y="66.782" type="curve" smooth="yes"/>
      <point x="870.0644" y="643.218" type="line" smooth="yes"/>
      <point x="870.0644" y="672.218"/>
      <point x="912.0444" y="679.218"/>
      <point x="968.8643999999999" y="679.218" type="curve" smooth="yes"/>
      <point x="981.7044" y="679.218" type="line"/>
      <point x="981.7044" y="710.0" type="line"/>
      <point x="797.8076" y="710.0" type="line"/>
      <point x="511.6504" y="44.3" type="line"/>
      <point x="523.5796" y="42.254" type="line"/>
      <point x="237.8428" y="710.0" type="line"/>
      <point x="52.36" y="710.0" type="line"/>
      <point x="52.36" y="679.218" type="line"/>
      <point x="65.2" y="679.218" type="line" smooth="yes"/>
      <point x="122.02000000000001" y="679.218"/>
      <point x="163.54000000000002" y="672.218"/>
      <point x="163.54000000000002" y="643.218" type="curve" smooth="yes"/>
      <point x="163.54000000000002" y="66.782" type="line" smooth="yes"/>
      <point x="163.54000000000002" y="37.782000000000004"/>
      <point x="122.02000000000001" y="30.782"/>
      <point x="65.2" y="30.782" type="curve"/>
      <point x="52.36" y="30.782" type="line"/>
    </contour>
  </outline>
</glyph>
<glyph name="R" format="2">
  <advance width="759"/>
  <unicode hex="0052"/>
  <anchor x="415.8136" y="741.0" name="top"/>
  <anchor x="415.8136" y="0.0" name="bottom"/>
  <outline>
    <contour>
      <point x="411.7088" y="329.586" type="line"/>
      <point x="446.1844" y="344.586" type="line"/>
      <point x="629.5608" y="58.782000000000004" type="line" smooth="yes"/>
      <point x="644.9436000000001" y="35.782000000000004"/>
      <point x="675.4148" y="30.782"/>
      <point x="716.1004" y="30.782" type="curve" smooth="yes"/>
      <point x="731.8972" y="30.782" type="line"/>
      <point x="731.8972" y="0.0" type="line"/>
      <point x="614.4312" y="0.0" type="line"/>
    </contour>
    <contour>
      <point x="52.36" y="0.0" type="line"/>
      <point x="52.36" y="30.782" type="line"/>
      <point x="65.2" y="30.782" type="line" smooth="yes"/>
      <point x="122.02000000000001" y="30.782"/>
      <point x="163.54000000000002" y="37.782000000000004"/>
      <point x="163.54000000000002" y="66.782" type="curve" smooth="yes"/>
      <point x="163.54000000000002" y="643.218" type="line" smooth="yes"/>
      <point x="163.54000000000002" y="672.218"/>
      <point x="122.02000000000001" y="679.218"/>
      <point x="65.2" y="679.218" type="curve" smooth="yes"/>
      <point x="52.36" y="679.218" type="line"/>
      <point x="52.36" y="710.0" type="line"/>
      <point x="365.1556" y="710.0" type="line" smooth="yes"/>
      <point x="529.1684" y="710.0"/>
      <point x="638.0172" y="635.6320000000001"/>
      <point x="638.0172" y="514.586" type="curve" smooth="yes"/>
      <point x="638.0172" y="414.678"/>
      <point x="555.8548000000001" y="344.632"/>
      <point x="440.5" y="324.356" type="curve" smooth="yes"/>
      <point x="417.108" y="320.264"/>
      <point x="395.13" y="318.17199999999997"/>
      <point x="369.692" y="318.17199999999997" type="curve" smooth="yes"/>
      <point x="193.8804" y="318.17199999999997" type="line"/>
      <point x="193.8804" y="349.368" type="line"/>
      <point x="369.692" y="349.368" type="line" smooth="yes"/>
      <point x="521.1308" y="349.368"/>
      <point x="593.95" y="423.54"/>
      <point x="593.95" y="514.586" type="curve" smooth="yes"/>
      <point x="593.95" y="619.804"/>
      <point x="508.4628" y="678.666"/>
      <point x="362.6956" y="678.666" type="curve" smooth="yes"/>
      <point x="204.1012" y="678.666" type="line"/>
      <point x="204.1012" y="40.782000000000004" type="line" smooth="yes"/>
      <point x="204.1012" y="33.782000000000004"/>
      <point x="254.0012" y="30.782"/>
      <point x="293.5212" y="30.782" type="curve" smooth="yes"/>
      <point x="303.48720000000003" y="30.782" type="line"/>
      <point x="303.48720000000003" y="0.0" type="line"/>
    </contour>
  </outline>
</glyph>
<glyph name="Y" format="2">
  <advance width="761"/>
  <unicode hex="0059"/>
  <anchor x="380.0784" y="741.0" name="top"/>
  <anchor x="380.0784" y="0.0" name="bottom"/>
  <outline>
    <contour>
      <point x="361.6304" y="311.18399999999997" type="line"/>
      <point x="361.6304" y="66.782" type="line" smooth="yes"/>
      <point x="361.6304" y="37.782000000000004"/>
      <point x="319.6504" y="30.782"/>
      <point x="262.8304" y="30.782" type="curve" smooth="yes"/>
      <point x="243.9876" y="30.782" type="line"/>
      <point x="243.9876" y="0.0" type="line"/>
      <point x="519.2088" y="0.0" type="line"/>
      <point x="519.2088" y="30.782" type="line"/>
      <point x="500.4488" y="30.782" type="line" smooth="yes"/>
      <point x="443.62879999999996" y="30.782"/>
      <point x="402.1916" y="37.782000000000004"/>
      <point x="402.1916" y="66.782" type="curve" smooth="yes"/>
      <point x="402.1916" y="311.18399999999997" type="line"/>
      <point x="389.4344" y="277.54" type="line"/>
      <point x="639.1764" y="638.218" type="line" smooth="yes"/>
      <point x="664.3964" y="675.218"/>
      <point x="697.9136" y="679.218"/>
      <point x="737.4336" y="679.218" type="curve" smooth="yes"/>
      <point x="743.3535999999999" y="679.218" type="line"/>
      <point x="743.3535999999999" y="710.0" type="line"/>
      <point x="503" y="710.0" type="line"/>
      <point x="503" y="679" type="line"/>
      <point x="520" y="679" type="line" smooth="yes"/>
      <point x="564" y="679"/>
      <point x="616" y="672"/>
      <point x="616" y="661" type="curve"/>
      <point x="365" y="294" type="line"/>
      <point x="401" y="304" type="line"/>
      <point x="148.192" y="669.218" type="line"/>
      <point x="148.192" y="676.218"/>
      <point x="203.0948" y="679.218"/>
      <point x="244.53200000000004" y="679.218" type="curve" smooth="yes"/>
      <point x="264.29200000000003" y="679.218" type="line"/>
      <point x="264.29200000000003" y="710.0" type="line"/>
      <point x="17.6312" y="710.0" type="line"/>
      <point x="17.6312" y="679.218" type="line"/>
      <point x="23.5512" y="679.218" type="line" smooth="yes"/>
      <point x="63.071200000000005" y="679.218"/>
      <point x="94.29400000000001" y="679.218"/>
      <point x="111.97120000000001" y="653.218" type="curve" smooth="yes"/>
      <point x="372.5136" y="277.632" type="line"/>
    </contour>
  </outline>
</glyph>
<glyph name="f" format="2">
  <advance width="426.4356"/>
  <unicode hex="0066"/>
  <outline>
    <contour>
      <point x="40.1888" y="508.0" type="line"/>
      <point x="40.1888" y="479.62" type="line"/>
      <point x="390.6" y="479.62" type="line"/>
      <point x="390.6" y="508.0" type="line"/>
    </contour>
    <contour>
      <point x="411.2468" y="742.0" type="line"/>
      <point x="392.7352" y="748.0"/>
      <point x="362.1748" y="752.0"/>
      <point x="326.9492" y="752.0" type="curve" smooth="yes"/>
      <point x="229.14280000000002" y="752.0"/>
      <point x="161.2088" y="709.046"/>
      <point x="161.2088" y="594.85" type="curve" smooth="yes"/>
      <point x="161.2088" y="63.827999999999996" type="line" smooth="yes"/>
      <point x="161.2088" y="34.827999999999996"/>
      <point x="122.6888" y="27.828"/>
      <point x="58.948800000000006" y="27.828" type="curve" smooth="yes"/>
      <point x="46.1088" y="27.828" type="line"/>
      <point x="46.1088" y="0.0" type="line"/>
      <point x="327.12120000000004" y="0.0" type="line"/>
      <point x="327.12120000000004" y="27.828" type="line"/>
      <point x="312.364" y="27.828" type="line" smooth="yes"/>
      <point x="249.624" y="27.828"/>
      <point x="202.184" y="30.828"/>
      <point x="202.184" y="37.827999999999996" type="curve" smooth="yes"/>
      <point x="202.184" y="594.85" type="line" smooth="yes"/>
      <point x="202.184" y="693.9879999999999"/>
      <point x="248.37560000000002" y="720.804"/>
      <point x="324.3236" y="720.804" type="curve" smooth="yes"/>
      <point x="358.30080000000004" y="720.804"/>
      <point x="388.1924" y="714.666"/>
      <point x="411.2468" y="707.62" type="curve"/>
    </contour>
  </outline>
</glyph>
<glyph name="i" format="2">
  <advance width="318.6088"/>
  <unicode hex="0069"/>
  <anchor x="164.1848" y="551.0" name="top"/>
  <anchor x="212.6708" y="-10.0" name="right"/>
  <anchor x="164.4332" y="-10.0" name="bottom"/>
  <outline>
    <contour>
      <point x="145.89120000000003" y="655.2520000000001" type="curve" smooth="yes"/>
      <point x="171.2464" y="655.2520000000001"/>
      <point x="190.0128" y="669.233999999568"/>
      <point x="190.0128" y="696.218" type="curve" smooth="yes"/>
      <point x="190.0128" y="723.156000000432"/>
      <point x="171.2464" y="737.138"/>
      <point x="145.89120000000003" y="737.138" type="curve" smooth="yes"/>
      <point x="120.53600000000002" y="737.138"/>
      <point x="101.7696" y="723.156000000432"/>
      <point x="101.7696" y="696.218" type="curve" smooth="yes"/>
      <point x="101.7696" y="669.233999999568"/>
      <point x="120.53600000000002" y="655.2520000000001"/>
    </contour>
    <contour>
      <point x="178.8812" y="508.0" type="line"/>
      <point x="40.1888" y="508.0" type="line"/>
      <point x="40.1888" y="482.034" type="line"/>
      <point x="51.946" y="480.034" type="line" smooth="yes"/>
      <point x="109.60040000000001" y="470.08"/>
      <point x="137.906" y="464.034"/>
      <point x="137.906" y="435.034" type="curve" smooth="yes"/>
      <point x="137.906" y="63.827999999999996" type="line" smooth="yes"/>
      <point x="137.906" y="34.827999999999996"/>
      <point x="98.4688" y="27.828"/>
      <point x="42.6488" y="27.828" type="curve" smooth="yes"/>
      <point x="40.0232" y="27.828" type="line"/>
      <point x="40.0232" y="0.0" type="line"/>
      <point x="276.1384" y="0.0" type="line"/>
      <point x="276.1384" y="27.828" type="line"/>
      <point x="273.5956" y="27.828" type="line" smooth="yes"/>
      <point x="218.3184" y="27.828"/>
      <point x="178.8812" y="34.827999999999996"/>
      <point x="178.8812" y="63.827999999999996" type="curve" smooth="yes"/>
    </contour>
  </outline>
</glyph>
<glyph name="r" format="2">
  <advance width="417"/>
  <unicode hex="0072"/>
  <anchor x="224.84199999999998" y="545.0" name="top"/>
  <anchor x="170.68439999999998" y="0.0" name="bottom"/>
  <outline>
    <contour>
      <point x="381.7756" y="514.046" type="line"/>
      <point x="375.0212" y="516.046"/>
      <point x="356.0128" y="518.0"/>
      <point x="342.2556" y="518.0" type="curve" smooth="yes"/>
      <point x="273.5" y="518.0"/>
      <point x="215.5512" y="471.448"/>
      <point x="175.4516" y="402.758" type="curve"/>
      <point x="175.4516" y="356.792" type="line"/>
      <point x="217.10039999999998" y="432.252"/>
      <point x="262.3224" y="472.16"/>
      <point x="326.7008" y="472.16" type="curve" smooth="yes"/>
      <point x="341.504" y="472.16"/>
      <point x="360.6844" y="470.114"/>
      <point x="381.7756" y="465.114" type="curve"/>
    </contour>
    <contour>
      <point x="40.1888" y="0.0" type="line"/>
      <point x="293.5212" y="0.0" type="line"/>
      <point x="293.5212" y="27.828" type="line"/>
      <point x="273.76120000000003" y="27.828" type="line" smooth="yes"/>
      <point x="241.704" y="27.828"/>
      <point x="178.964" y="32.736000000000004"/>
      <point x="178.964" y="61.874" type="curve" smooth="yes"/>
      <point x="178.964" y="396.712" type="line"/>
      <point x="179.9576" y="396.298" type="line"/>
      <point x="179.9576" y="508.0" type="line"/>
      <point x="40.1888" y="508.0" type="line"/>
      <point x="40.1888" y="482.034" type="line"/>
      <point x="52.028800000000004" y="480.034" type="line" smooth="yes"/>
      <point x="109.84880000000001" y="470.034"/>
      <point x="137.9888" y="464.034"/>
      <point x="137.9888" y="435.034" type="curve" smooth="yes"/>
      <point x="137.9888" y="63.827999999999996" type="line" smooth="yes"/>
      <point x="137.9888" y="34.827999999999996"/>
      <point x="98.4688" y="27.828"/>
      <point x="42.6488" y="27.828" type="curve" smooth="yes"/>
      <point x="40.1888" y="27.828" type="line"/>
    </contour>
  </outline>
</glyph>
<glyph name="u" format="2">
  <advance width="662"/>
  <unicode hex="0075"/>
  <anchor x="303.17359999999996" y="551.0" name="top"/>
  <anchor x="476.14599999999996" y="0.0" name="right"/>
  <anchor x="303.5048" y="0.0" name="bottom"/>
  <outline>
    <contour>
      <point x="161.2868" y="508.0" type="line"/>
      <point x="23.22" y="508.0" type="line"/>
      <point x="23.22" y="480.12600000000003" type="line"/>
      <point x="24.6036" y="480.034" type="line" smooth="yes"/>
      <point x="79.5496" y="479.666"/>
      <point x="120.3116" y="472.62"/>
      <point x="120.3116" y="443.62" type="curve" smooth="yes"/>
      <point x="120.3116" y="151.0" type="line" smooth="yes"/>
      <point x="120.3116" y="40.0"/>
      <point x="181.8096" y="-10.0"/>
      <point x="288.824" y="-10.0" type="curve" smooth="yes"/>
      <point x="373.90999999999997" y="-10.0"/>
      <point x="439.6068" y="25.954"/>
      <point x="501.51240000000007" y="98.908" type="curve"/>
      <point x="501.51240000000007" y="143.104" type="line"/>
      <point x="443.8184" y="69.104"/>
      <point x="380.0784" y="24.38"/>
      <point x="295.83320000000003" y="24.38" type="curve" smooth="yes"/>
      <point x="196.25760000000002" y="24.38"/>
      <point x="161.2868" y="66.966"/>
      <point x="161.2868" y="162.046" type="curve"/>
    </contour>
    <contour>
      <point x="538.9752000000001" y="508.0" type="line"/>
      <point x="391.9424" y="508.0" type="line"/>
      <point x="391.9424" y="480.12600000000003" type="line"/>
      <point x="392.16679999999997" y="479.988" type="line"/>
      <point x="457.3208" y="479.666"/>
      <point x="498.0" y="472.62"/>
      <point x="498.0" y="443.62" type="curve" smooth="yes"/>
      <point x="498.0" y="117.0" type="line"/>
      <point x="497.0064" y="116.402" type="line"/>
      <point x="497.0064" y="0.0" type="line"/>
      <point x="638.7752" y="0.0" type="line"/>
      <point x="638.7752" y="27.828" type="line"/>
      <point x="635.3152" y="27.828" type="line" smooth="yes"/>
      <point x="579.4124" y="27.828"/>
      <point x="538.9752000000001" y="34.827999999999996"/>
      <point x="538.9752000000001" y="63.827999999999996" type="curve" smooth="yes"/>
    </contour>
  </outline>
</glyph>
<glyph name="braceleft" format="2">
  <advance width="365.2448"/>
  <unicode hex="007B"/>
  <outline>
    <contour>
      <point x="258.7732" y="245.126" type="curve" smooth="yes"/>
      <point x="258.7732" y="265.954"/>
      <point x="249.9664" y="272.50600000000003"/>
      <point x="128.94" y="299.0" type="curve"/>
      <point x="128.94" y="304.0" type="line"/>
      <point x="249.9664" y="330.49399999999997"/>
      <point x="258.7732" y="337.046"/>
      <point x="258.7732" y="357.87399999999997" type="curve" smooth="yes"/>
      <point x="258.7732" y="388.61"/>
      <point x="123.2268" y="526.77"/>
      <point x="123.2268" y="615.218" type="curve" smooth="yes"/>
      <point x="123.2268" y="686.402"/>
      <point x="204.9228" y="723.034"/>
      <point x="342.0248" y="724.85" type="curve"/>
      <point x="325.7248" y="750.908" type="line"/>
      <point x="204.7748" y="747.414"/>
      <point x="82.5" y="717.2760000000001"/>
      <point x="82.5" y="615.678" type="curve" smooth="yes"/>
      <point x="82.5" y="537.402"/>
      <point x="166.8868" y="441.712"/>
      <point x="229.4024" y="353.86199999999997" type="curve"/>
      <point x="238.28560000000002" y="360.46" type="line"/>
      <point x="58.28" y="310.552" type="line"/>
      <point x="58.28" y="292.448" type="line"/>
      <point x="238.28560000000002" y="242.54" type="line"/>
      <point x="229.4024" y="249.138" type="line"/>
      <point x="166.8868" y="161.288"/>
      <point x="82.5" y="65.598"/>
      <point x="82.5" y="-12.678" type="curve" smooth="yes"/>
      <point x="82.5" y="-114.276"/>
      <point x="204.7748" y="-144.41400000000002"/>
      <point x="325.7248" y="-147.90800000000002" type="curve"/>
      <point x="342.0248" y="-121.85" type="line"/>
      <point x="204.9228" y="-120.034"/>
      <point x="123.2268" y="-83.402"/>
      <point x="123.2268" y="-12.218" type="curve" smooth="yes"/>
      <point x="123.2268" y="76.23"/>
      <point x="258.7732" y="214.39"/>
    </contour>
  </outline>
</glyph>
<glyph name="currency" format="2">
  <advance width="650.1600000000001"/>
  <unicode hex="00A4"/>
  <outline>
    <contour>
      <point x="523.2312000000001" y="375.86199999999997" type="curve" smooth="yes"/>
      <point x="523.2312000000001" y="276.740000000012"/>
      <point x="442.664" y="207.564"/>
      <point x="325.08000000000004" y="207.564" type="curve" smooth="yes"/>
      <point x="207.496" y="207.564"/>
      <point x="126.9288" y="277.736666666684"/>
      <point x="126.9288" y="375.86199999999997" type="curve" smooth="yes"/>
      <point x="126.9288" y="474.98601438847203"/>
      <point x="207.496" y="545.16"/>
      <point x="325.08000000000004" y="545.16" type="curve" smooth="yes"/>
      <point x="442.664" y="545.16"/>
      <point x="523.2312000000001" y="474.98601438847203"/>
    </contour>
    <contour>
      <point x="84.96000000000001" y="375.86199999999997" type="curve" smooth="yes"/>
      <point x="84.96000000000001" y="256.899596153832"/>
      <point x="191.5972" y="170.954"/>
      <point x="325.08000000000004" y="170.954" type="curve" smooth="yes"/>
      <point x="458.56280000000004" y="170.954"/>
      <point x="565.2" y="256.899596153832"/>
      <point x="565.2" y="375.86199999999997" type="curve" smooth="yes"/>
      <point x="565.2" y="495.823483253596"/>
      <point x="458.56280000000004" y="581.77"/>
      <point x="325.08000000000004" y="581.77" type="curve" smooth="yes"/>
      <point x="191.5972" y="581.77"/>
      <point x="84.96000000000001" y="495.823483253596"/>
    </contour>
    <contour>
      <point x="37.0536" y="599.218" type="line"/>
      <point x="156.6136" y="496.218" type="line"/>
      <point x="193.484" y="517.322" type="line"/>
      <point x="65.4612" y="627.322" type="line"/>
    </contour>
    <contour>
      <point x="613.1064" y="599.218" type="line"/>
      <point x="584.6988" y="627.322" type="line"/>
      <point x="456.67600000000004" y="517.322" type="line"/>
      <point x="493.54640000000006" y="496.218" type="line"/>
    </contour>
    <contour>
      <point x="37.0536" y="152.506" type="line"/>
      <point x="65.4612" y="124.402" type="line"/>
      <point x="193.484" y="234.402" type="line"/>
      <point x="156.6136" y="255.506" type="line"/>
    </contour>
    <contour>
      <point x="613.1064" y="152.506" type="line"/>
      <point x="493.54640000000006" y="255.506" type="line"/>
      <point x="456.67600000000004" y="234.402" type="line"/>
      <point x="584.6988" y="124.402" type="line"/>
    </contour>
  </outline>
</glyph>
<glyph name="acute" format="2">
  <advance width="580.5"/>
  <unicode hex="00B4"/>
  <anchor x="255.7512" y="527.0" name="_top"/>
  <outline>
    <contour>
      <point x="299.6356" y="707.0" type="curve" smooth="yes"/>
      <point x="234.27640000000002" y="589.816" type="line"/>
      <point x="234.27640000000002" y="575.54" type="line"/>
      <point x="248.8376" y="575.54" type="line"/>
      <point x="346.6376" y="681.9879999999999" type="line" smooth="yes"/>
      <point x="362.5236" y="699.126"/>
      <point x="376.4464" y="714.402"/>
      <point x="376.4464" y="729.54" type="curve" smooth="yes"/>
      <point x="376.4464" y="743.908"/>
      <point x="365.35159999999996" y="754.23"/>
      <point x="348.12800000000004" y="754.23" type="curve" smooth="yes"/>
      <point x="326.5704" y="754.23"/>
      <point x="316.1012" y="737.23"/>
    </contour>
  </outline>
</glyph>
<glyph name="cedilla" format="2">
  <advance width="696.6"/>
  <unicode hex="00B8"/>
  <anchor x="323.17560000000003" y="34.0" name="_bottom"/>
  <outline>
    <contour>
      <point x="344.6808" y="4.0" type="line"/>
      <point x="304.516" y="4.0" type="line"/>
      <point x="266.04200000000003" y="-88.322" type="line"/>
      <point x="278.3088" y="-88.322" type="line" smooth="yes"/>
      <point x="355.0077189189592" y="-88.322"/>
      <point x="383.3076" y="-111.90096551724139"/>
      <point x="383.3076" y="-147.90800000000002" type="curve" smooth="yes"/>
      <point x="383.3076" y="-184.54"/>
      <point x="352.4224" y="-207.172"/>
      <point x="311.4056" y="-207.172" type="curve" smooth="yes"/>
      <point x="257.8864" y="-207.172"/>
      <point x="236.01532156763352" y="-181.04983091629276"/>
      <point x="212.8604" y="-161.31" type="curve"/>
      <point x="189.21359999999999" y="-185.77" type="line"/>
      <point x="215.89360000000002" y="-215.0"/>
      <point x="251.2912" y="-236.0"/>
      <point x="311.1572" y="-236.0" type="curve" smooth="yes"/>
      <point x="370.9280134454032" y="-236.0"/>
      <point x="425.856" y="-204.184"/>
      <point x="425.856" y="-147.816" type="curve" smooth="yes"/>
      <point x="425.856" y="-88.908"/>
      <point x="366.2048207599016" y="-55.899532154952"/>
      <point x="288.02639999999997" y="-59.908" type="curve"/>
      <point x="279.8793642815848" y="-80.8569801563992"/>
      <point x="292.6152" y="-79.724"/>
      <point x="294.6152" y="-76.54" type="curve"/>
    </contour>
  </outline>
</glyph>
<glyph name="multiply" format="2">
  <advance width="650.1600000000001"/>
  <unicode hex="00D7"/>
  <outline>
    <contour>
      <point x="141.4552" y="522.552" type="line"/>
      <point x="117.4248" y="498.448" type="line"/>
      <point x="509.62200000000007" y="158.448" type="line"/>
      <point x="532.5696" y="182.552" type="line"/>
    </contour>
    <contour>
      <point x="508.62200000000007" y="522.552" type="line"/>
      <point x="117.59040000000002" y="182.552" type="line"/>
      <point x="140.4552" y="158.448" type="line"/>
      <point x="532.7352000000001" y="498.448" type="line"/>
    </contour>
  </outline>
</glyph>
<glyph name="germandbls" format="2">
  <advance width="645.1220000000001"/>
  <unicode hex="00DF"/>
  <outline>
    <contour>
      <point x="40.1888" y="508.0" type="line"/>
      <point x="40.1888" y="476.758" type="line"/>
      <point x="201.7288" y="476.758" type="line"/>
      <point x="201.7288" y="508.0" type="line"/>
    </contour>
    <contour>
      <point x="46.1088" y="0.0" type="line"/>
      <point x="202.184" y="0.0" type="line"/>
      <point x="202.184" y="587.218" type="line" smooth="yes"/>
      <point x="202.184" y="687.31"/>
      <point x="260.418" y="720.804"/>
      <point x="349.034" y="720.804" type="curve" smooth="yes"/>
      <point x="439.1928" y="720.804"/>
      <point x="486.88120000000004" y="675.31"/>
      <point x="486.88120000000004" y="605.448" type="curve" smooth="yes"/>
      <point x="486.88120000000004" y="504.276"/>
      <point x="384.3488" y="447.598"/>
      <point x="280.84040000000005" y="436.598" type="curve"/>
      <point x="280.84040000000005" y="405.586" type="line"/>
      <point x="284.466" y="405.586" type="line" smooth="yes"/>
      <point x="438.8616" y="405.586"/>
      <point x="555.038" y="320.264"/>
      <point x="555.038" y="188.816" type="curve" smooth="yes"/>
      <point x="555.038" y="78.69"/>
      <point x="494.6816" y="21.242"/>
      <point x="390.18600000000004" y="21.242" type="curve" smooth="yes"/>
      <point x="326.9556" y="21.242"/>
      <point x="277.2212" y="45.104"/>
      <point x="274.3408" y="44.288" type="curve"/>
      <point x="274.3408" y="10.046" type="line"/>
      <point x="294.432" y="1.046"/>
      <point x="340.7892" y="-10.0"/>
      <point x="389.5236" y="-10.0" type="curve" smooth="yes"/>
      <point x="515.838" y="-10.0"/>
      <point x="599.3076" y="62.632"/>
      <point x="599.3076" y="188.816" type="curve" smooth="yes"/>
      <point x="599.3076" y="325.939774193584"/>
      <point x="477.312664623232" y="412.53578062288"/>
      <point x="320.0052" y="427.322" type="curve"/>
      <point x="306.9344" y="419.77" type="line"/>
      <point x="419.084" y="429.81600000000003"/>
      <point x="525.8563999999999" y="507.952278074824"/>
      <point x="525.8563999999999" y="608.77" type="curve" smooth="yes"/>
      <point x="525.8563999999999" y="691.862"/>
      <point x="455.6472" y="752.0"/>
      <point x="348.95120000000003" y="752.0" type="curve" smooth="yes"/>
      <point x="245.2708" y="752.0"/>
      <point x="161.2088" y="704.2760000000001"/>
      <point x="161.2088" y="587.218" type="curve" smooth="yes"/>
      <point x="161.2088" y="63.827999999999996" type="line" smooth="yes"/>
      <point x="161.2088" y="34.827999999999996"/>
      <point x="122.6888" y="27.828"/>
      <point x="58.948800000000006" y="27.828" type="curve" smooth="yes"/>
      <point x="46.1088" y="27.828" type="line"/>
    </contour>
  </outline>
</glyph>
<glyph name="oe" format="2">
  <advance width="1080.0684"/>
  <unicode hex="0153"/>
  <outline>
    <contour>
      <point x="810.0504000000001" y="-10.0" type="curve" smooth="yes"/>
      <point x="916.9884" y="-10.0"/>
      <point x="983.6916" y="34.368"/>
      <point x="1027.6716000000001" y="102.23" type="curve"/>
      <point x="1002.6412" y="126.104" type="line"/>
      <point x="969.0412000000001" y="72.56400000000001"/>
      <point x="912.6416" y="21.242"/>
      <point x="809.802" y="21.242" type="curve" smooth="yes"/>
      <point x="686.2024" y="21.242"/>
      <point x="589.2891999999999" y="104.782"/>
      <point x="589.2891999999999" y="250.0" type="curve" smooth="yes"/>
      <point x="589.2891999999999" y="396.264"/>
      <point x="677.5740000000001" y="486.804"/>
      <point x="798.4588" y="486.804" type="curve" smooth="yes"/>
      <point x="922.88" y="486.804"/>
      <point x="979.6936011525761" y="413.310042900888"/>
      <point x="985.9448000000001" y="265.0" type="curve"/>
      <point x="1002.9200000000001" y="274.598" type="line"/>
      <point x="555.9376" y="274.598" type="line"/>
      <point x="556.9376" y="243.402" type="line"/>
      <point x="1028.966" y="243.402" type="line"/>
      <point x="1027.4232000399097" y="423.046004275056"/>
      <point x="951.0024000000001" y="518.046"/>
      <point x="798.4588" y="518.046" type="curve" smooth="yes"/>
      <point x="660.9603999999999" y="518.046"/>
      <point x="557.8596" y="413.31"/>
      <point x="557.8596" y="252.0" type="curve" smooth="yes"/>
      <point x="557.8596" y="87.69"/>
      <point x="669.5888" y="-10.0"/>
    </contour>
    <contour>
      <point x="319.8048" y="-10.0" type="curve"/>
      <point x="469.4744" y="-10.0"/>
      <point x="578.0748" y="92.69"/>
      <point x="578.0748" y="254.0" type="curve" smooth="yes"/>
      <point x="578.0748" y="413.31"/>
      <point x="469.4744" y="518.0"/>
      <point x="319.8048" y="518.0" type="curve" smooth="yes"/>
      <point x="163.7445209302056" y="518.0"/>
      <point x="50.6516" y="410.046"/>
      <point x="50.6516" y="254.0" type="curve" smooth="yes"/>
      <point x="50.6516" y="97.0"/>
      <point x="163.67520000000002" y="-10.0"/>
    </contour>
    <contour>
      <point x="319.8048" y="21.242" type="curve"/>
      <point x="180.9576" y="21.242"/>
      <point x="94.83840000000001" y="112.782"/>
      <point x="94.83840000000001" y="254.0" type="curve" smooth="yes"/>
      <point x="94.83840000000001" y="392.31"/>
      <point x="181.0212146340696" y="486.758"/>
      <point x="319.8048" y="486.758" type="curve" smooth="yes"/>
      <point x="459.1948" y="486.758"/>
      <point x="544.7712" y="392.31"/>
      <point x="544.7712" y="254.0" type="curve" smooth="yes"/>
      <point x="544.7712" y="111.782"/>
      <point x="459.1948" y="21.242"/>
    </contour>
  </outline>
</glyph>
<glyph name="Ohorn" format="2">
  <advance width="869.472"/>
  <unicode hex="01A0"/>
  <anchor x="424.1936" y="742.0" name="top"/>
  <outline>
    <contour>
      <point x="455.38120000000004" y="705.7579999999999" type="curve"/>
      <point x="664.4964" y="683.264"/>
      <point x="830.9584" y="704.966"/>
      <point x="842.1296" y="877.954" type="curve"/>
      <point x="800.6576" y="877.954" type="line"/>
      <point x="787.4036000000001" y="735.15"/>
      <point x="687.1132" y="720.0"/>
      <point x="431.776" y="720.0" type="curve"/>
      <point x="451.6776" y="715.77"/>
      <point x="460.0704" y="703.448"/>
    </contour>
    <contour>
      <point x="430.69320000000005" y="-10.0" type="curve" smooth="yes"/>
      <point x="645.3512000000001" y="-10.0"/>
      <point x="807.5664" y="139.0"/>
      <point x="807.5664" y="355.0" type="curve" smooth="yes"/>
      <point x="807.5664" y="537.9879999999999"/>
      <point x="689.39" y="671.712"/>
      <point x="521.1848" y="706.9879999999999" type="curve"/>
      <point x="491.87280000000004" y="716.7239999999999"/>
      <point x="461.01160000000004" y="720.0"/>
      <point x="430.69320000000005" y="720.0" type="curve" smooth="yes"/>
      <point x="217.0352" y="720.0"/>
      <point x="54.36" y="572.0"/>
      <point x="54.36" y="355.0" type="curve" smooth="yes"/>
      <point x="54.36" y="139.0"/>
      <point x="217.0352" y="-10.0"/>
    </contour>
    <contour>
      <point x="430.69320000000005" y="21.38" type="curve" smooth="yes"/>
      <point x="235.2348" y="21.38"/>
      <point x="98.59280000000001" y="150.828"/>
      <point x="98.59280000000001" y="355.0" type="curve" smooth="yes"/>
      <point x="98.59280000000001" y="559.172"/>
      <point x="235.2348" y="688.62"/>
      <point x="430.69320000000005" y="688.62" type="curve" smooth="yes"/>
      <point x="625.6088" y="688.62"/>
      <point x="763.7936" y="559.172"/>
      <point x="763.7936" y="355.0" type="curve" smooth="yes"/>
      <point x="763.7936" y="150.828"/>
      <point x="625.6088" y="21.38"/>
    </contour>
  </outline>
</glyph>
<glyph name="uhorn" format="2">
  <advance width="694.9504"/>
  <unicode hex="01B0"/>
  <anchor x="319.2952" y="545.0" name="top"/>
  <outline>
    <contour>
      <point x="161.2868" y="508.0" type="line"/>
      <point x="23.22" y="508.0" type="line"/>
      <point x="23.22" y="480.034" type="line"/>
      <point x="24.6036" y="479.942" type="line" smooth="yes"/>
      <point x="79.5496" y="479.574"/>
      <point x="120.3116" y="472.528"/>
      <point x="120.3116" y="443.528" type="curve" smooth="yes"/>
      <point x="120.3116" y="151.0" type="line" smooth="yes"/>
      <point x="120.3116" y="40.0"/>
      <point x="181.8096" y="-10.0"/>
      <point x="288.824" y="-10.0" type="curve" smooth="yes"/>
      <point x="389.46479999999997" y="-10.0"/>
      <point x="461.08160000000004" y="40.322"/>
      <point x="533.3736" y="143.012" type="curve"/>
      <point x="523.7692" y="173.78199999999998" type="line"/>
      <point x="460.44960000000003" y="80.92"/>
      <point x="390.7068" y="24.38"/>
      <point x="295.83320000000003" y="24.38" type="curve" smooth="yes"/>
      <point x="196.25760000000002" y="24.38"/>
      <point x="161.2868" y="66.966"/>
      <point x="161.2868" y="162.046" type="curve"/>
    </contour>
    <contour>
      <point x="538.9752000000001" y="507.31" type="line"/>
      <point x="443.5936" y="497.586"/>
      <point x="497.0716" y="490.632"/>
      <point x="507.138" y="485.218" type="curve"/>
      <point x="671.0028" y="494.85"/>
      <point x="704.8796" y="564.838"/>
      <point x="713.5448" y="684.77" type="curve"/>
      <point x="671.576" y="684.77" type="line"/>
      <point x="660.2024" y="544.954"/>
      <point x="616.732" y="508.0"/>
      <point x="410.58439999999996" y="508.0" type="curve" smooth="yes"/>
      <point x="391.9424" y="508.0" type="line"/>
      <point x="391.9424" y="480.034" type="line"/>
      <point x="392.16679999999997" y="479.942" type="line"/>
      <point x="457.3208" y="479.712"/>
      <point x="498.0" y="472.528"/>
      <point x="498.0" y="443.528" type="curve" smooth="yes"/>
      <point x="498.0" y="107.46" type="line"/>
      <point x="497.0064" y="115.448" type="line"/>
      <point x="497.0064" y="0.0" type="line"/>
      <point x="638.7752" y="0.0" type="line"/>
      <point x="638.7752" y="27.828" type="line"/>
      <point x="635.3152" y="27.828" type="line" smooth="yes"/>
      <point x="579.4124" y="27.828"/>
      <point x="538.9752000000001" y="34.827999999999996"/>
      <point x="538.9752000000001" y="63.827999999999996" type="curve" smooth="yes"/>
    </contour>
  </outline>
</glyph>
<glyph name="dotlessj" format="2">
  <advance width="286.2636"/>
  <unicode hex="0237"/>
  <anchor x="142.5076" y="539.126" name="top"/>
  <outline>
    <contour>
      <point x="132.3172" y="-73.62" type="line" smooth="yes"/>
      <point x="132.3172" y="-170.712"/>
      <point x="85.8772" y="-202.62"/>
      <point x="10.8832" y="-202.62" type="curve" smooth="yes"/>
      <point x="-32.4648" y="-202.62"/>
      <point x="-64.396" y="-193.804"/>
      <point x="-91.076" y="-184.942" type="curve"/>
      <point x="-91.076" y="-220.276" type="line"/>
      <point x="-68.7732" y="-229.138"/>
      <point x="-38.2128" y="-236.0"/>
      <point x="10.552" y="-236.0" type="curve" smooth="yes"/>
      <point x="89.4024" y="-236.0"/>
      <point x="173.2924" y="-203.54"/>
      <point x="173.2924" y="-73.62" type="curve" smooth="yes"/>
      <point x="173.2924" y="508.0" type="line"/>
      <point x="35.924800000000005" y="508.0" type="line"/>
      <point x="35.924800000000005" y="482.034" type="line"/>
      <point x="47.1024" y="480.034" type="line" smooth="yes"/>
      <point x="104.88560000000001" y="470.17199999999997"/>
      <point x="132.3172" y="464.034"/>
      <point x="132.3172" y="435.034" type="curve" smooth="yes"/>
    </contour>
  </outline>
</glyph>
<glyph name="verticallinelowmod" format="2">
  <advance width="580.96"/>
  <unicode hex="02CC"/>
  <outline>
    <contour>
      <point x="268.5388" y="-250.0" type="line"/>
      <point x="311.4184" y="-250.0" type="line"/>
      <point x="311.4184" y="-47.0" type="line"/>
      <point x="268.5388" y="-47.0" type="line"/>
    </contour>
  </outline>
</glyph>
<glyph name="ring" format="2">
  <advance width="580.96"/>
  <unicode hex="02DA"/>
  <anchor x="290.48" y="526.0" name="_top"/>
  <outline>
    <contour>
      <point x="216.1548" y="676.678" type="curve" smooth="yes"/>
      <point x="216.1548" y="719.6320000000001"/>
      <point x="249.16879999999998" y="741.586"/>
      <point x="290.48" y="741.586" type="curve" smooth="yes"/>
      <point x="331.3312" y="741.586"/>
      <point x="364.3452" y="719.6320000000001"/>
      <point x="364.3452" y="676.678" type="curve" smooth="yes"/>
      <point x="364.3452" y="633.7239999999999"/>
      <point x="331.3312" y="611.77"/>
      <point x="290.48" y="611.77" type="curve" smooth="yes"/>
      <point x="249.16879999999998" y="611.77"/>
      <point x="216.1548" y="633.7239999999999"/>
    </contour>
    <contour>
      <point x="406.17240000000004" y="676.678" type="curve" smooth="yes"/>
      <point x="406.17240000000004" y="734.862"/>
      <point x="354.392" y="768.0"/>
      <point x="290.48" y="768.0" type="curve" smooth="yes"/>
      <point x="226.108" y="768.0"/>
      <point x="174.32760000000002" y="734.862"/>
      <point x="174.32760000000002" y="676.678" type="curve" smooth="yes"/>
      <point x="174.32760000000002" y="618.494"/>
      <point x="227.19080000000002" y="585.356"/>
      <point x="290.48" y="585.356" type="curve" smooth="yes"/>
      <point x="353.30920000000003" y="585.356"/>
      <point x="406.17240000000004" y="618.494"/>
    </contour>
  </outline>
</glyph>
<glyph name="ogonek" format="2">
  <advance width="696.6"/>
  <unicode hex="02DB"/>
  <anchor x="428.6648" y="28.08" name="_right"/>
  <outline>
    <contour>
      <point x="447.34839999999997" y="21.644" type="line"/>
      <point x="379.2792" y="-22.0"/>
      <point x="304.1132" y="-69.368"/>
      <point x="304.1132" y="-140.23" type="curve" smooth="yes"/>
      <point x="304.1132" y="-198.184"/>
      <point x="353.76480000000004" y="-233.138"/>
      <point x="412.8028" y="-233.138" type="curve" smooth="yes"/>
      <point x="461.7092" y="-233.138"/>
      <point x="500.89160000000004" y="-211.276"/>
      <point x="532.28" y="-180.46" type="curve"/>
      <point x="511.6792" y="-159.816" type="line"/>
      <point x="484.92280000000005" y="-182.31"/>
      <point x="458.8288" y="-202.126"/>
      <point x="417.9012" y="-202.126" type="curve" smooth="yes"/>
      <point x="378.76480000000004" y="-202.126"/>
      <point x="344.92280000000005" y="-180.448"/>
      <point x="344.92280000000005" y="-139.816" type="curve" smooth="yes"/>
      <point x="344.92280000000005" y="-83.552"/>
      <point x="388.02586552678486" y="-49.944453398545406"/>
      <point x="466.618" y="1.322" type="curve"/>
    </contour>
  </outline>
</glyph>
<glyph name="Delta" format="2">
  <advance width="813.5104"/>
  <unicode hex="0394"/>
  <outline>
    <contour>
      <point x="39.3608" y="0.0" type="line"/>
      <point x="774.0668000000001" y="0.0" type="line"/>
      <point x="774.0668000000001" y="29.3" type="line"/>
      <point x="430.5404" y="710.0" type="line"/>
      <point x="382.8872" y="710.0" type="line"/>
      <point x="39.3608" y="29.3" type="line"/>
    </contour>
    <contour>
      <point x="732.2636" y="23.15" type="line"/>
      <point x="751.6924" y="34.3" type="line"/>
      <point x="75.4208" y="34.3" type="line"/>
      <point x="79.2708" y="17.38" type="line"/>
      <point x="415.9664" y="696.138" type="line"/>
      <point x="398.442" y="697.138" type="line"/>
    </contour>
  </outline>
</glyph>
<glyph name="dagger" format="2">
  <advance width="459.9288"/>
  <unicode hex="2020"/>
  <outline>
    <contour>
      <point x="226.66359999999997" y="505.13800000000003" type="line"/>
      <point x="233.2652" y="505.13800000000003" type="line"/>
      <point x="402.7252" y="490.068" type="line"/>
      <point x="437.78520000000003" y="490.068" type="line"/>
      <point x="437.78520000000003" y="535.564" type="line"/>
      <point x="402.7252" y="535.564" type="line"/>
      <point x="233.2652" y="524.598" type="line"/>
      <point x="226.66359999999997" y="524.598" type="line"/>
      <point x="57.2036" y="535.564" type="line"/>
      <point x="22.1436" y="535.564" type="line"/>
      <point x="22.1436" y="490.068" type="line"/>
      <point x="57.2036" y="490.068" type="line"/>
    </contour>
    <contour>
      <point x="249.624" y="710.0" type="line"/>
      <point x="210.3048" y="710.0" type="line"/>
      <point x="210.3048" y="675.0" type="line" smooth="yes"/>
      <point x="210.3048" y="640.0"/>
      <point x="215.8236" y="585.908"/>
      <point x="215.8236" y="508.598" type="curve" smooth="yes"/>
      <point x="215.8236" y="440.0"/>
      <point x="212.026" y="403.046"/>
      <point x="203.7224" y="377.0" type="curve"/>
      <point x="203.7224" y="357.0" type="line" smooth="yes"/>
      <point x="203.7224" y="316.0"/>
      <point x="211.2808" y="219.0"/>
      <point x="219.20080000000002" y="0.0" type="curve"/>
      <point x="240.728" y="0.0" type="line"/>
      <point x="248.64800000000002" y="219.0"/>
      <point x="256.20640000000003" y="316.0"/>
      <point x="256.20640000000003" y="357.0" type="curve" smooth="yes"/>
      <point x="256.20640000000003" y="377.0" type="line"/>
      <point x="247.9028" y="403.046"/>
      <point x="244.1052" y="440.0"/>
      <point x="244.1052" y="508.598" type="curve" smooth="yes"/>
      <point x="244.1052" y="585.908"/>
      <point x="249.624" y="640.0"/>
      <point x="249.624" y="675.0" type="curve" smooth="yes"/>
    </contour>
  </outline>
</glyph>
<glyph name="bullet" format="2">
  <advance width="411.9984"/>
  <unicode hex="2022"/>
  <outline>
    <contour>
      <point x="87.53960000000001" y="337.0" type="curve" smooth="yes"/>
      <point x="87.53960000000001" y="276.218"/>
      <point x="135.8664" y="234.666"/>
      <point x="205.9992" y="234.666" type="curve" smooth="yes"/>
      <point x="274.5064" y="234.666"/>
      <point x="324.4588" y="276.218"/>
      <point x="324.4588" y="337.0" type="curve" smooth="yes"/>
      <point x="324.4588" y="397.782"/>
      <point x="274.5064" y="439.334"/>
      <point x="205.9992" y="439.334" type="curve" smooth="yes"/>
      <point x="135.8664" y="439.334"/>
      <point x="87.53960000000001" y="397.782"/>
    </contour>
  </outline>
</glyph>
<glyph name="peso" format="2">
  <advance width="650.1600000000001"/>
  <unicode hex="20B1"/>
  <outline>
    <contour>
      <point x="3.6016000000000004" y="0.0" type="line"/>
      <point x="280.25440000000003" y="0.0" type="line"/>
      <point x="280.25440000000003" y="30.782" type="line"/>
      <point x="247.99200000000002" y="30.782" type="line" smooth="yes"/>
      <point x="208.058" y="30.782"/>
      <point x="157.49560000000002" y="33.782000000000004"/>
      <point x="157.49560000000002" y="40.782000000000004" type="curve" smooth="yes"/>
      <point x="157.49560000000002" y="260.448" type="line"/>
      <point x="253.34359999999998" y="260.448" type="line" smooth="yes"/>
      <point x="449.2656" y="260.448"/>
      <point x="543.198" y="353.586"/>
      <point x="543.198" y="488.724" type="curve" smooth="yes"/>
      <point x="543.198" y="623.862"/>
      <point x="454.1028" y="710.0"/>
      <point x="258.7208" y="710.0" type="curve" smooth="yes"/>
      <point x="3.6016000000000004" y="710.0" type="line"/>
      <point x="3.6016000000000004" y="679.218" type="line"/>
      <point x="16.4416" y="679.218" type="line" smooth="yes"/>
      <point x="74.5864" y="679.218"/>
      <point x="116.9344" y="672.218"/>
      <point x="116.9344" y="643.218" type="curve" smooth="yes"/>
      <point x="116.9344" y="66.782" type="line" smooth="yes"/>
      <point x="116.9344" y="37.782000000000004"/>
      <point x="74.5864" y="30.782"/>
      <point x="16.4416" y="30.782" type="curve" smooth="yes"/>
      <point x="3.6016000000000004" y="30.782" type="line"/>
    </contour>
    <contour>
      <point x="258.80359999999996" y="678.7579999999999" type="line" smooth="yes"/>
      <point x="426.6124" y="678.7579999999999"/>
      <point x="498.1832" y="609.034"/>
      <point x="498.1832" y="487.724" type="curve" smooth="yes"/>
      <point x="498.1832" y="369.276"/>
      <point x="427.6952" y="291.598"/>
      <point x="253.4264" y="291.598" type="curve" smooth="yes"/>
      <point x="157.49560000000002" y="291.598" type="line"/>
      <point x="157.49560000000002" y="678.7579999999999" type="line"/>
    </contour>
    <contour>
      <point x="3.6016000000000004" y="503.092" type="line"/>
      <point x="3.6016000000000004" y="472.08" type="line"/>
      <point x="140.78640000000001" y="472.08" type="line"/>
      <point x="142.6796" y="472.08" type="line"/>
      <point x="517.2044000000001" y="472.08" type="line"/>
      <point x="525.5908000000001" y="472.08" type="line"/>
      <point x="639.8692" y="472.08" type="line"/>
      <point x="639.8692" y="503.092" type="line"/>
      <point x="529.6" y="503.092" type="line"/>
      <point x="517.8668" y="503.092" type="line"/>
      <point x="149.5104" y="503.092" type="line"/>
      <point x="141.4552" y="503.092" type="line"/>
    </contour>
  </outline>
</glyph>
<glyph name="uni20B4" format="2">
  <advance width="650.1600000000001"/>
  <unicode hex="20B4"/>
  <outline>
    <contour>
      <point x="23.799599999999998" y="456.50600000000003" type="line"/>
      <point x="23.799599999999998" y="425.31" type="line"/>
      <point x="626.3604" y="425.31" type="line"/>
      <point x="626.3604" y="456.50600000000003" type="line"/>
    </contour>
    <contour>
      <point x="23.799599999999998" y="316.0" type="line"/>
      <point x="23.799599999999998" y="284.804" type="line"/>
      <point x="626.3604" y="284.804" type="line"/>
      <point x="626.3604" y="316.0" type="line"/>
    </contour>
    <contour>
      <point x="333.9696" y="720.0" type="curve" smooth="yes"/>
      <point x="230.4548" y="720.0"/>
      <point x="153.16" y="681.954"/>
      <point x="118.8912" y="653.138" type="curve"/>
      <point x="118.8912" y="566.804" type="line"/>
      <point x="172.1572" y="566.804" type="line"/>
      <point x="172.1572" y="667.804" type="line"/>
      <point x="156.0992" y="663.942"/>
      <point x="136.33280000000002" y="640.7579999999999"/>
      <point x="143.2528" y="619.62" type="curve"/>
      <point x="177.93560000000002" y="656.7579999999999"/>
      <point x="240.6756" y="688.666"/>
      <point x="334.7976" y="688.666" type="curve" smooth="yes"/>
      <point x="442.00026666612473" y="688.666"/>
      <point x="502.69559999999996" y="643.85"/>
      <point x="502.69559999999996" y="567.092" type="curve" smooth="yes"/>
      <point x="502.69559999999996" y="512.3679999999999"/>
      <point x="477.5952" y="472.092"/>
      <point x="441.85360000000003" y="444.678" type="curve"/>
      <point x="499.71479999999997" y="443.988" type="line"/>
      <point x="526.5668" y="473.08"/>
      <point x="544.2504" y="514.54"/>
      <point x="544.2504" y="563.092" type="curve" smooth="yes"/>
      <point x="544.2504" y="660.0"/>
      <point x="464.8868" y="720.0"/>
    </contour>
    <contour>
      <point x="325.1692" y="-10.0" type="curve" smooth="yes"/>
      <point x="446.858" y="-10.0"/>
      <point x="534.7812" y="38.954"/>
      <point x="579.0096" y="79.218" type="curve"/>
      <point x="579.0096" y="167.196" type="line"/>
      <point x="528.4888" y="167.196" type="line"/>
      <point x="528.4888" y="70.54" type="line"/>
      <point x="548.4208" y="76.31"/>
      <point x="561.982" y="98.69"/>
      <point x="553.8964" y="115.322" type="curve"/>
      <point x="513.8272000000001" y="63.69"/>
      <point x="431.9656" y="21.38"/>
      <point x="324.3412" y="21.38" type="curve" smooth="yes"/>
      <point x="204.7572" y="21.38"/>
      <point x="121.1872" y="74.322"/>
      <point x="121.1872" y="166.632" type="curve" smooth="yes"/>
      <point x="121.1872" y="220.448"/>
      <point x="144.536" y="263.0"/>
      <point x="183.2344" y="291.23" type="curve"/>
      <point x="130.7376" y="291.0" type="line"/>
      <point x="98.0548" y="260.368"/>
      <point x="80.212" y="221.954"/>
      <point x="80.212" y="172.90800000000002" type="curve" smooth="yes"/>
      <point x="80.212" y="54.908"/>
      <point x="185.4288" y="-10.0"/>
    </contour>
  </outline>
</glyph>
<glyph name="manat" format="2">
  <advance width="650.1600000000001"/>
  <unicode hex="20BC"/>
  <outline>
    <contour>
      <point x="305.64480000000003" y="720.0" type="line"/>
      <point x="305.64480000000003" y="143.54" type="line"/>
      <point x="344.5152" y="143.54" type="line"/>
      <point x="344.5152" y="720.0" type="line"/>
    </contour>
    <contour>
      <point x="325.08000000000004" y="558.9879999999999" type="curve" smooth="yes"/>
      <point x="492.26735855902723" y="558.9879999999999"/>
      <point x="582.836" y="384.31"/>
      <point x="582.836" y="0.0" type="curve"/>
      <point x="627.2712" y="0.0" type="line"/>
      <point x="627.2712" y="381.12600000000003"/>
      <point x="515.880083019328" y="590.0"/>
      <point x="325.08000000000004" y="590.0" type="curve" smooth="yes"/>
      <point x="134.279916980672" y="590.0"/>
      <point x="22.8888" y="381.12600000000003"/>
      <point x="22.8888" y="0.0" type="curve"/>
      <point x="67.324" y="0.0" type="line"/>
      <point x="67.324" y="384.31"/>
      <point x="157.8926414409728" y="558.9879999999999"/>
    </contour>
  </outline>
</glyph>
<glyph name="numero" format="2">
  <advance width="1368.6200000000001"/>
  <unicode hex="2116"/>
  <outline>
    <contour>
      <point x="917.912" y="226.552" type="line"/>
      <point x="1310.7348000000002" y="226.552" type="line"/>
      <point x="1310.7348000000002" y="195.402" type="line"/>
      <point x="917.912" y="195.402" type="line"/>
    </contour>
    <component base="N" xOffset="92.05520000000001"/>
    <component base="ordmasculine" xOffset="790.826"/>
  </outline>
</glyph>
<glyph name="radical" format="2">
  <advance width="677.0708"/>
  <unicode hex="221A"/>
  <outline>
    <contour>
      <point x="62.084" y="326.804" type="line"/>
      <point x="196.8436" y="326.804" type="line"/>
      <point x="162.6816" y="347.12600000000003" type="line"/>
      <point x="329.1132" y="0.0" type="line"/>
      <point x="356.2024" y="0.0" type="line"/>
      <point x="362.2052" y="27.506" type="line"/>
      <point x="204.402" y="358.552" type="line"/>
      <point x="62.084" y="358.552" type="line"/>
    </contour>
    <contour>
      <point x="604.1404" y="710.0" type="line"/>
      <point x="332.2244" y="0.0" type="line"/>
      <point x="366.8896" y="0.0" type="line"/>
      <point x="641.3944" y="710.0" type="line"/>
    </contour>
  </outline>
</glyph>
<glyph name="uni25B8" format="2">
  <advance width="665.46"/>
  <unicode hex="25B8"/>
  <outline>
    <contour>
      <point x="151.16" y="10.0" type="line"/>
      <point x="583.96" y="277.0" type="line"/>
      <point x="151.16" y="545.0" type="line"/>
    </contour>
  </outline>
</glyph>
<glyph name="uni27F7" format="2">
  <advance width="1508.3000000000002"/>
  <unicode hex="27F7"/>
  <outline>
    <contour>
      <point x="1178.3" y="324.0" type="line"/>
      <point x="1075.04" y="192.0" type="line"/>
      <point x="1086.88" y="179.0" type="line"/>
      <point x="1444.1" y="346.0" type="line"/>
      <point x="1444.1" y="360.0" type="line"/>
      <point x="1086.88" y="527.0" type="line"/>
      <point x="1075.04" y="514.0" type="line"/>
      <point x="1178.3" y="382.0" type="line"/>
      <point x="329.54" y="382.0" type="line"/>
      <point x="433.26" y="514.0" type="line"/>
      <point x="421.42" y="527.0" type="line"/>
      <point x="63.74" y="360.0" type="line"/>
      <point x="63.74" y="346.0" type="line"/>
      <point x="421.42" y="179.0" type="line"/>
      <point x="433.26" y="192.0" type="line"/>
      <point x="329.54" y="324.0" type="line"/>
    </contour>
  </outline>
</glyph>
<glyph name="f_f_l" format="2">
  <advance width="1099.5128"/>
  <unicode hex="FB04"/>
  <outline>
    <contour>
      <point x="40.1888" y="508.0" type="line"/>
      <point x="40.1888" y="479.62" type="line"/>
      <point x="516.222" y="479.62" type="line"/>
      <point x="516.222" y="508.0" type="line"/>
    </contour>
    <contour>
      <point x="419.0124" y="508.0" type="line"/>
      <point x="419.0124" y="479.62" type="line"/>
      <point x="769.5432000000001" y="479.62" type="line"/>
      <point x="769.5432000000001" y="508.0" type="line"/>
    </contour>
    <contour>
      <point x="329.93640000000005" y="0.0" type="line"/>
      <point x="329.93640000000005" y="27.828" type="line"/>
      <point x="314.02" y="27.828" type="line" smooth="yes"/>
      <point x="250.36919999999998" y="27.828"/>
      <point x="202.184" y="30.828"/>
      <point x="202.184" y="37.827999999999996" type="curve" smooth="yes"/>
      <point x="202.184" y="576.08" type="line" smooth="yes"/>
      <point x="202.184" y="675.218"/>
      <point x="245.9156" y="708.712"/>
      <point x="320.0292" y="708.712" type="curve" smooth="yes"/>
      <point x="357.42040000000003" y="708.712"/>
      <point x="387.5604" y="699.712"/>
      <point x="412.406" y="691.712" type="curve"/>
      <point x="412.406" y="727.046" type="line"/>
      <point x="391.0204" y="733.046"/>
      <point x="357.5032" y="737.046"/>
      <point x="322.6548" y="737.046" type="curve" smooth="yes"/>
      <point x="227.3084" y="737.046"/>
      <point x="161.2088" y="690.2760000000001"/>
      <point x="161.2088" y="576.08" type="curve" smooth="yes"/>
      <point x="161.2088" y="63.827999999999996" type="line" smooth="yes"/>
      <point x="161.2088" y="34.827999999999996"/>
      <point x="122.6888" y="27.828"/>
      <point x="58.948800000000006" y="27.828" type="curve" smooth="yes"/>
      <point x="46.1088" y="27.828" type="line"/>
      <point x="46.1088" y="0.0" type="line"/>
    </contour>
    <contour>
      <point x="707.104" y="0.0" type="line"/>
      <point x="707.104" y="27.828" type="line"/>
      <point x="691.7212000000001" y="27.828" type="line" smooth="yes"/>
      <point x="628.3188" y="27.828"/>
      <point x="580.4648" y="30.828"/>
      <point x="580.4648" y="37.827999999999996" type="curve" smooth="yes"/>
      <point x="580.4648" y="594.85" type="line" smooth="yes"/>
      <point x="580.4648" y="693.9879999999999"/>
      <point x="636.2848" y="720.804"/>
      <point x="750.9056" y="720.804" type="curve" smooth="yes"/>
      <point x="818.3604" y="720.804"/>
      <point x="886.5540000000001" y="705.712"/>
      <point x="941.8708" y="670.7" type="curve"/>
      <point x="950.2048" y="710.448" type="line"/>
      <point x="907.2248000000001" y="727.184"/>
      <point x="843.4848" y="752.0"/>
      <point x="750.6572" y="752.0" type="curve" smooth="yes"/>
      <point x="617.5120000000001" y="752.0"/>
      <point x="539.4896" y="709.046"/>
      <point x="539.4896" y="594.85" type="curve"/>
      <point x="539.4896" y="37.827999999999996" type="line" smooth="yes"/>
      <point x="539.4896" y="30.828"/>
      <point x="491.30440000000004" y="27.828"/>
      <point x="428.31600000000003" y="27.828" type="curve" smooth="yes"/>
      <point x="424.3896" y="27.828" type="line"/>
      <point x="424.3896" y="0.0" type="line"/>
    </contour>
    <contour>
      <point x="1056.6284" y="0.0" type="line"/>
      <point x="1056.6284" y="27.828" type="line"/>
      <point x="1054.1684" y="27.828" type="line" smooth="yes"/>
      <point x="998.2656000000001" y="27.828"/>
      <point x="959.2884" y="34.827999999999996"/>
      <point x="959.2884" y="63.827999999999996" type="curve" smooth="yes"/>
      <point x="959.2884" y="735.0" type="line"/>
      <point x="856.2356" y="735.0" type="line"/>
      <point x="918.3132" y="702.678" type="line"/>
      <point x="918.3132" y="37.827999999999996" type="line" smooth="yes"/>
      <point x="918.3132" y="30.828"/>
      <point x="865.9531999999999" y="27.828"/>
      <point x="833.3532" y="27.828" type="curve" smooth="yes"/>
      <point x="820.5132000000001" y="27.828" type="line"/>
      <point x="820.5132000000001" y="0.0" type="line"/>
    </contour>
  </outline>
</glyph>
<glyph name="acute.ucpl" format="2">
  <advance width="580.5"/>
  <anchor x="216.6516" y="694.0" name="_top"/>
  <outline>
    <contour>
      <point x="221.43640000000002" y="852.896" type="curve" smooth="yes"/>
      <point x="210.6424" y="767.092" type="line"/>
      <point x="210.6424" y="750.0" type="line"/>
      <point x="229.07760000000002" y="750.0" type="line"/>
      <point x="273.4348" y="832.528" type="line" smooth="yes"/>
      <point x="279.4504" y="849.218"/>
      <point x="284.708" y="863.6320000000001"/>
      <point x="284.708" y="877.862" type="curve" smooth="yes"/>
      <point x="284.708" y="894.2760000000001"/>
      <point x="273.7788" y="904.46"/>
      <point x="257.3896" y="904.46" type="curve" smooth="yes"/>
      <point x="234.49439999999998" y="904.46"/>
      <point x="225.19080000000002" y="887.184"/>
    </contour>
  </outline>
</glyph>
<glyph name="at.uc" format="2">
  <advance width="998.46"/>
  <outline>
    <contour>
      <point x="523.7564" y="-43.482" type="curve" smooth="yes"/>
      <point x="272.2232" y="-43.482"/>
      <point x="97.7236" y="90.87400000000001"/>
      <point x="97.7236" y="304.0" type="curve" smooth="yes"/>
      <point x="97.7236" y="532.218"/>
      <point x="290.9004" y="704.712"/>
      <point x="553.0684" y="704.712" type="curve" smooth="yes"/>
      <point x="781.0935999999999" y="704.712"/>
      <point x="911.6132" y="576.31"/>
      <point x="911.6132" y="412.13800000000003" type="curve" smooth="yes"/>
      <point x="911.6132" y="236.196"/>
      <point x="826.2162769238273" y="146.61"/>
      <point x="729.7924" y="146.61" type="curve" smooth="yes"/>
      <point x="662.6355098593151" y="146.61"/>
      <point x="632.9958090643199" y="179.19736532832"/>
      <point x="647.5168" y="249.138" type="curve" smooth="yes"/>
      <point x="705.8796" y="538.138" type="line"/>
      <point x="682.1804" y="538.138" type="line"/>
      <point x="650.4084" y="468.54" type="line"/>
      <point x="646.942" y="462.586" type="line"/>
      <point x="596.6279999999999" y="209.69" type="line"/>
      <point x="600.1708" y="205.644"/>
      <point x="599.5912000000001" y="210.322"/>
      <point x="600.5912000000001" y="213.138" type="curve"/>
      <point x="604.8849482010496" y="160.42126778728"/>
      <point x="649.1601714283391" y="123.23"/>
      <point x="727.74" y="123.23" type="curve" smooth="yes"/>
      <point x="842.0109904755711" y="123.23"/>
      <point x="943.3612" y="229.138"/>
      <point x="943.3612" y="412.13800000000003" type="curve" smooth="yes"/>
      <point x="943.3612" y="596.046"/>
      <point x="791.9464" y="733.0"/>
      <point x="553.0684" y="733.0" type="curve" smooth="yes"/>
      <point x="276.5048" y="733.0"/>
      <point x="65.9756" y="551.046"/>
      <point x="65.9756" y="304.0" type="curve" smooth="yes"/>
      <point x="65.9756" y="71.092"/>
      <point x="257.8276" y="-72.724"/>
      <point x="523.7564" y="-72.724" type="curve" smooth="yes"/>
      <point x="648.942" y="-72.724"/>
      <point x="755.0456" y="-38.092"/>
      <point x="815.8288" y="-5.414" type="curve"/>
      <point x="806.608" y="21.782" type="line"/>
      <point x="743.1164" y="-10.85"/>
      <point x="647.1075999999999" y="-43.482"/>
    </contour>
    <contour>
      <point x="466.7248" y="119.138" type="curve" smooth="yes"/>
      <point x="538.0232" y="119.138"/>
      <point x="579.7547999999999" y="165.828"/>
      <point x="627.4256" y="231.392" type="curve"/>
      <point x="625.1184" y="264.116" type="line"/>
      <point x="574.0004" y="195.38"/>
      <point x="534.7224" y="147.15"/>
      <point x="465.89680000000004" y="147.15" type="curve" smooth="yes"/>
      <point x="391.12080000000003" y="147.15"/>
      <point x="352.15" y="193.92"/>
      <point x="352.15" y="290.77" type="curve" smooth="yes"/>
      <point x="352.15" y="398.49399999999997"/>
      <point x="429.1376" y="516.08"/>
      <point x="537.4308000000001" y="516.08" type="curve" smooth="yes"/>
      <point x="599.1248" y="516.08"/>
      <point x="635.6052" y="488.85"/>
      <point x="660.8648000000001" y="399.12600000000003" type="curve"/>
      <point x="665.5555999999999" y="446.792" type="line"/>
      <point x="650.4975999999999" y="514.77"/>
      <point x="606.4284" y="544.138"/>
      <point x="541.636" y="544.138" type="curve" smooth="yes"/>
      <point x="406.3032" y="544.138"/>
      <point x="307.9696" y="422.586"/>
      <point x="307.9696" y="291.276" type="curve" smooth="yes"/>
      <point x="307.9696" y="181.138"/>
      <point x="373.6728" y="119.138"/>
    </contour>
  </outline>
</glyph>
<glyph name="bar.uc" format="2">
  <advance width="325.08000000000004"/>
  <outline>
    <contour>
      <point x="146.0156" y="745.23" type="line"/>
      <point x="146.0156" y="-35.23" type="line"/>
      <point x="179.06439999999998" y="-35.23" type="line"/>
      <point x="179.06439999999998" y="745.23" type="line"/>
    </contour>
  </outline>
</glyph>
<glyph name="breve_acute.uc" format="2">
  <advance width="592.4228"/>
  <anchor x="292.6456" y="744.0" name="_top"/>
  <outline>
    <contour>
      <point x="371.8624" y="1018.322" type="curve" smooth="yes"/>
      <point x="269.1184" y="930.3679999999999" type="line"/>
      <point x="269.1184" y="916.0" type="line"/>
      <point x="283.8452" y="916.0" type="line"/>
      <point x="409.51480000000004" y="986.712" type="line" smooth="yes"/>
      <point x="441.3696" y="1005.712"/>
      <point x="458.3016" y="1017.172"/>
      <point x="458.3016" y="1033.586" type="curve" smooth="yes"/>
      <point x="458.3016" y="1046.954"/>
      <point x="448.2896" y="1056.46"/>
      <point x="432.1488" y="1056.46" type="curve" smooth="yes"/>
      <point x="410.5912" y="1056.46"/>
      <point x="399.0392" y="1042.414"/>
    </contour>
    <component base="breve.uc" xOffset="37.76600000000001"/>
  </outline>
</glyph>
<glyph name="breve_tilde.uc" format="2">
  <advance width="580.5"/>
  <anchor x="280.42" y="694.0" name="_top"/>
  <outline>
    <contour>
      <point x="283.98040000000003" y="759.0" type="curve" smooth="yes"/>
      <point x="192.68" y="759.0"/>
      <point x="138.98239999999998" y="805.7239999999999"/>
      <point x="133.3936" y="883.7239999999999" type="curve"/>
      <point x="164.26760000000002" y="883.7239999999999" type="line"/>
      <point x="175.2732" y="825.552"/>
      <point x="210.2044" y="800.2420000000001"/>
      <point x="283.6492" y="800.2420000000001" type="curve" smooth="yes"/>
      <point x="356.5512" y="800.2420000000001"/>
      <point x="394.8992" y="825.552"/>
      <point x="405.4448" y="883.7239999999999" type="curve"/>
      <point x="434.7328" y="883.7239999999999" type="line"/>
      <point x="429.144" y="805.7239999999999"/>
      <point x="374.8208" y="759.0"/>
    </contour>
    <contour>
      <point x="354.97159999999997" y="927.77" type="curve" smooth="yes"/>
      <point x="406.5864" y="927.77"/>
      <point x="432.776" y="960.908"/>
      <point x="452.78440000000006" y="1019.954" type="curve"/>
      <point x="422.5856" y="1029.414" type="line"/>
      <point x="407.4972" y="988.0120000000001"/>
      <point x="389.78319999999997" y="962.196"/>
      <point x="358.9348" y="962.196" type="curve" smooth="yes"/>
      <point x="308.538" y="962.196"/>
      <point x="286.3116" y="1032.046"/>
      <point x="208.82080000000002" y="1032.046" type="curve" smooth="yes"/>
      <point x="158.07999999999998" y="1032.046"/>
      <point x="127.894" y="999.954"/>
      <point x="115.7624" y="937.908" type="curve"/>
      <point x="145.41840000000002" y="927.54" type="line"/>
      <point x="156.5896" y="972.896"/>
      <point x="168.8868" y="997.666"/>
      <point x="204.6092" y="997.666" type="curve" smooth="yes"/>
      <point x="254.91680000000002" y="997.666"/>
      <point x="275.5176" y="927.77"/>
    </contour>
  </outline>
</glyph>
<glyph name="currency.proportional" format="2">
  <advance width="737.1008"/>
  <outline>
    <contour>
      <point x="566.7016" y="375.86199999999997" type="curve" smooth="yes"/>
      <point x="566.7016" y="276.736"/>
      <point x="485.6483069768577" y="207.564"/>
      <point x="368.5504" y="207.564" type="curve" smooth="yes"/>
      <point x="250.90969302314238" y="207.564"/>
      <point x="169.8564" y="277.736"/>
      <point x="169.8564" y="375.86199999999997" type="curve" smooth="yes"/>
      <point x="169.8564" y="474.988"/>
      <point x="250.90969302314238" y="545.16"/>
      <point x="368.5504" y="545.16" type="curve" smooth="yes"/>
      <point x="485.6483069768577" y="545.16"/>
      <point x="566.7016" y="474.988"/>
    </contour>
    <contour>
      <point x="127.8876" y="375.86199999999997" type="curve" smooth="yes"/>
      <point x="127.8876" y="256.908"/>
      <point x="234.1720754718208" y="170.954"/>
      <point x="368.5504" y="170.954" type="curve" smooth="yes"/>
      <point x="502.3859245281792" y="170.954"/>
      <point x="608.6704" y="256.908"/>
      <point x="608.6704" y="375.86199999999997" type="curve" smooth="yes"/>
      <point x="608.6704" y="495.81600000000003"/>
      <point x="502.3859245281792" y="581.77"/>
      <point x="368.5504" y="581.77" type="curve" smooth="yes"/>
      <point x="234.1720754718208" y="581.77"/>
      <point x="127.8876" y="495.81600000000003"/>
    </contour>
    <contour>
      <point x="79.9812" y="599.218" type="line"/>
      <point x="200.084" y="496.218" type="line"/>
      <point x="236.4116" y="517.322" type="line"/>
      <point x="108.9316" y="627.322" type="line"/>
    </contour>
    <contour>
      <point x="656.5768" y="599.218" type="line"/>
      <point x="627.6264" y="627.322" type="line"/>
      <point x="500.1464" y="517.322" type="line"/>
      <point x="537.0168000000001" y="496.218" type="line"/>
    </contour>
    <contour>
      <point x="79.9812" y="152.506" type="line"/>
      <point x="108.9316" y="124.402" type="line"/>
      <point x="236.4116" y="234.402" type="line"/>
      <point x="200.084" y="255.506" type="line"/>
    </contour>
    <contour>
      <point x="656.5768" y="152.506" type="line"/>
      <point x="537.0168000000001" y="255.506" type="line"/>
      <point x="500.1464" y="234.402" type="line"/>
      <point x="627.6264" y="124.402" type="line"/>
    </contour>
  </outline>
</glyph>
<glyph name="f_f_k.alt" format="2">
  <advance width="1451.534"/>
  <outline>
    <contour>
      <point x="1418.4372" y="0.0" type="line"/>
      <point x="1418.4372" y="30.69" type="line"/>
      <point x="1415.8944" y="30.69" type="line"/>
      <point x="1377.2484" y="30.69"/>
      <point x="1343.354" y="37.644"/>
      <point x="1307.5884" y="68.69" type="curve" smooth="yes"/>
      <point x="1047.39" y="291.782" type="line"/>
      <point x="1048.6384" y="272.632" type="line"/>
      <point x="1256.6424000000002" y="428.31" type="line" smooth="yes"/>
      <point x="1299.7051999999999" y="461.356"/>
      <point x="1336.1028000000001" y="477.31"/>
      <point x="1386.2512000000002" y="477.31" type="curve"/>
      <point x="1388.7112" y="477.31" type="line"/>
      <point x="1388.7112" y="508.0" type="line"/>
      <point x="1140.2288" y="508.0" type="line"/>
      <point x="1140.2288" y="477.31" type="line"/>
      <point x="1144.6888000000001" y="477.31" type="line"/>
      <point x="1183.54" y="477.31"/>
      <point x="1242.82" y="474.31"/>
      <point x="1242.82" y="459.31" type="curve"/>
      <point x="1007.3016" y="280.632" type="line"/>
      <point x="1007.3016" y="275.632" type="line"/>
      <point x="1283.5296" y="40.69" type="line"/>
      <point x="1283.5296" y="33.69"/>
      <point x="1232.6296" y="30.69"/>
      <point x="1196.2384" y="30.69" type="curve"/>
      <point x="1188.9872" y="30.69" type="line"/>
      <point x="1188.9872" y="0.0" type="line"/>
    </contour>
    <contour>
      <point x="40.1888" y="508.0" type="line"/>
      <point x="40.1888" y="479.62" type="line"/>
      <point x="516.222" y="479.62" type="line"/>
      <point x="516.222" y="508.0" type="line"/>
    </contour>
    <contour>
      <point x="419.0124" y="508.0" type="line"/>
      <point x="419.0124" y="479.62" type="line"/>
      <point x="769.5432000000001" y="479.62" type="line"/>
      <point x="769.5432000000001" y="508.0" type="line"/>
    </contour>
    <contour>
      <point x="820.5132000000001" y="0.0" type="line"/>
      <point x="1046.2484" y="0.0" type="line"/>
      <point x="1046.2484" y="30.69" type="line"/>
      <point x="1042.7884" y="30.69" type="line" smooth="yes"/>
      <point x="1011.1884" y="30.69"/>
      <point x="959.2884" y="33.69"/>
      <point x="959.2884" y="40.69" type="curve"/>
      <point x="959.2884" y="735.0" type="line"/>
      <point x="856.8152" y="735.0" type="line"/>
      <point x="918.3132" y="702.356" type="line"/>
      <point x="918.3132" y="37.827999999999996" type="line"/>
      <point x="918.3132" y="30.828"/>
      <point x="865.9531999999999" y="27.828"/>
      <point x="833.3532" y="27.828" type="curve" smooth="yes"/>
      <point x="820.5132000000001" y="27.828" type="line"/>
    </contour>
    <contour>
      <point x="580.4648" y="37.827999999999996" type="curve"/>
      <point x="580.4648" y="594.85" type="line" smooth="yes"/>
      <point x="580.4648" y="693.9879999999999"/>
      <point x="636.2848" y="720.804"/>
      <point x="750.3628000000001" y="720.804" type="curve" smooth="yes"/>
      <point x="818.3604" y="720.804"/>
      <point x="886.5540000000001" y="705.712"/>
      <point x="941.8708" y="670.7" type="curve"/>
      <point x="950.2048" y="710.448" type="line"/>
      <point x="907.2248000000001" y="727.184"/>
      <point x="843.4848" y="752.0"/>
      <point x="750.1144" y="752.0" type="curve" smooth="yes"/>
      <point x="617.5120000000001" y="752.0"/>
      <point x="539.4896" y="709.046"/>
      <point x="539.4896" y="594.85" type="curve"/>
      <point x="539.4896" y="37.827999999999996" type="line"/>
      <point x="539.4896" y="30.828"/>
      <point x="491.30440000000004" y="27.828"/>
      <point x="428.31600000000003" y="27.828" type="curve" smooth="yes"/>
      <point x="424.3896" y="27.828" type="line"/>
      <point x="424.3896" y="0.0" type="line"/>
      <point x="707.104" y="0.0" type="line"/>
      <point x="707.104" y="27.828" type="line"/>
      <point x="691.7212000000001" y="27.828" type="line" smooth="yes"/>
      <point x="628.3188" y="27.828"/>
      <point x="580.4648" y="30.828"/>
    </contour>
    <contour>
      <point x="202.184" y="37.827999999999996" type="curve" smooth="yes"/>
      <point x="202.184" y="558.586" type="line" smooth="yes"/>
      <point x="202.184" y="669.482"/>
      <point x="290.824" y="700.804"/>
      <point x="392.014" y="700.804" type="curve" smooth="yes"/>
      <point x="465.4348" y="700.804"/>
      <point x="529.0856" y="682.62"/>
      <point x="569.1852" y="635.62" type="curve"/>
      <point x="575.1944" y="677.436"/>
      <point x="561.4676" y="680.506"/>
      <point x="539.4896" y="690.9879999999999" type="curve"/>
      <point x="539.4896" y="567.85" type="line"/>
      <point x="578.336" y="617.85" type="line"/>
      <point x="578.336" y="680.586" type="line"/>
      <point x="546.6992" y="706.586"/>
      <point x="484.456" y="732.0"/>
      <point x="392.014" y="732.0" type="curve" smooth="yes"/>
      <point x="261.1744" y="732.0"/>
      <point x="161.2088" y="686.08"/>
      <point x="161.2088" y="558.586" type="curve" smooth="yes"/>
      <point x="161.2088" y="63.827999999999996" type="line"/>
      <point x="161.2088" y="34.827999999999996"/>
      <point x="122.6888" y="27.828"/>
      <point x="58.948800000000006" y="27.828" type="curve" smooth="yes"/>
      <point x="46.1088" y="27.828" type="line"/>
      <point x="46.1088" y="0.0" type="line"/>
      <point x="329.93640000000005" y="0.0" type="line"/>
      <point x="329.93640000000005" y="27.828" type="line"/>
      <point x="314.02" y="27.828" type="line" smooth="yes"/>
      <point x="250.36919999999998" y="27.828"/>
      <point x="202.184" y="30.828"/>
    </contour>
  </outline>
</glyph>
<glyph name="five.lin" format="2">
  <advance width="650.1600000000001"/>
  <outline>
    <contour>
      <point x="328.15" y="-10.046" type="curve" smooth="yes"/>
      <point x="188.5752" y="-10.046"/>
      <point x="113.74040000000001" y="47.46"/>
      <point x="68.8432" y="131.09199999999998" type="curve"/>
      <point x="92.3768" y="155.828" type="line"/>
      <point x="134.3936" y="79.886"/>
      <point x="199.67000000000002" y="21.334"/>
      <point x="328.15" y="21.334" type="curve" smooth="yes"/>
      <point x="475.7848" y="21.334"/>
      <point x="559.616" y="110.4798904109589"/>
      <point x="559.616" y="241.046" type="curve" smooth="yes"/>
      <point x="559.616" y="364.31"/>
      <point x="466.16280000000006" y="439.43600000000004"/>
      <point x="353.244" y="439.43600000000004" type="curve" smooth="yes"/>
      <point x="256.1716" y="439.43600000000004"/>
      <point x="190.9348" y="405.942"/>
      <point x="136.4156" y="344.81600000000003" type="curve"/>
      <point x="109.58760000000001" y="344.81600000000003" type="line"/>
      <point x="109.58760000000001" y="710.0" type="line"/>
      <point x="552.9856" y="710.0" type="line"/>
      <point x="541.636" y="671.16" type="line"/>
      <point x="126.4036" y="671.16" type="line"/>
      <point x="143.0044" y="690.0" type="line"/>
      <point x="143.0044" y="371.276" type="line"/>
      <point x="139.5444" y="361.276"/>
      <point x="134.3632" y="352.322"/>
      <point x="121.364" y="364.782" type="curve"/>
      <point x="172.09199999999998" y="427.368"/>
      <point x="247.258" y="470.81600000000003"/>
      <point x="355.37919999999997" y="470.81600000000003" type="curve" smooth="yes"/>
      <point x="514.4592" y="470.81600000000003"/>
      <point x="603.8028" y="361.18399999999997"/>
      <point x="603.8028" y="241.046" type="curve" smooth="yes"/>
      <point x="603.8028" y="97.66971084337348"/>
      <point x="499.90440000000007" y="-10.046"/>
    </contour>
  </outline>
</glyph>
<glyph name="four.den" format="2">
  <advance width="377.06280000000004"/>
  <outline>
    <contour>
      <point x="27.011200000000002" y="88.816" type="line"/>
      <point x="353.2264" y="88.816" type="line"/>
      <point x="353.2264" y="122.69" type="line"/>
      <point x="57.1512" y="122.69" type="line"/>
      <point x="48.7344" y="98.414" type="line"/>
      <point x="241.11360000000002" y="315.724" type="line"/>
      <point x="262.9132" y="341.0" type="line"/>
      <point x="219.9332" y="341.0" type="line"/>
      <point x="27.011200000000002" y="125.69" type="line"/>
    </contour>
    <contour>
      <point x="277.8184" y="0.0" type="line"/>
      <point x="277.8184" y="341.0" type="line"/>
      <point x="243.15320000000003" y="341.0" type="line"/>
      <point x="234.7732" y="331.08" type="line"/>
      <point x="234.7732" y="0.0" type="line"/>
    </contour>
  </outline>
</glyph>
<glyph name="liraTurkish.proportional" format="2">
  <advance width="738.5148"/>
  <outline>
    <contour>
      <point x="84.1036" y="391.552" type="line"/>
      <point x="84.1036" y="360.54" type="line"/>
      <point x="545.0436" y="532.322" type="line"/>
      <point x="545.0436" y="563.334" type="line"/>
    </contour>
    <contour>
      <point x="84.1036" y="226.552" type="line"/>
      <point x="84.1036" y="195.54" type="line"/>
      <point x="545.0436" y="367.322" type="line"/>
      <point x="545.0436" y="398.334" type="line"/>
    </contour>
    <contour>
      <point x="375.25239999999997" y="31.242" type="curve" smooth="yes"/>
      <point x="236.5532" y="31.242" type="line"/>
      <point x="236.5532" y="643.218" type="line" smooth="yes"/>
      <point x="236.5532" y="672.218"/>
      <point x="279.7816" y="679.218"/>
      <point x="340.31" y="679.218" type="curve" smooth="yes"/>
      <point x="353.2328" y="679.218" type="line"/>
      <point x="353.2328" y="710.0" type="line"/>
      <point x="84.1036" y="710.0" type="line"/>
      <point x="84.1036" y="679.218" type="line"/>
      <point x="97.19200000000001" y="679.218" type="line" smooth="yes"/>
      <point x="154.5548" y="679.218"/>
      <point x="195.992" y="672.218"/>
      <point x="195.992" y="643.218" type="curve" smooth="yes"/>
      <point x="195.992" y="66.782" type="line" smooth="yes"/>
      <point x="195.992" y="37.782000000000004"/>
      <point x="154.5548" y="30.782"/>
      <point x="97.19200000000001" y="30.782" type="curve" smooth="yes"/>
      <point x="84.1036" y="30.782" type="line"/>
      <point x="84.1036" y="0.0" type="line"/>
      <point x="371.0344" y="0.0" type="line" smooth="yes"/>
      <point x="573.018" y="0.0"/>
      <point x="672.99" y="103.632"/>
      <point x="682.7904" y="276.23" type="curve"/>
      <point x="636.2024" y="287.782" type="line"/>
      <point x="629.448" y="120.012"/>
      <point x="555.4936" y="31.242"/>
    </contour>
  </outline>
</glyph>
<glyph name="manat.proportional" format="2">
  <advance width="757.1984"/>
  <outline>
    <contour>
      <point x="358.62120000000004" y="720.0" type="line"/>
      <point x="358.62120000000004" y="144.368" type="line"/>
      <point x="397.9516" y="144.368" type="line"/>
      <point x="397.9516" y="720.0" type="line"/>
    </contour>
    <contour>
      <point x="378.5992" y="558.9879999999999" type="curve" smooth="yes"/>
      <point x="554.5892" y="558.9879999999999"/>
      <point x="653.4896" y="370.322"/>
      <point x="653.4896" y="0.0" type="curve"/>
      <point x="697.1795999999999" y="0.0" type="line"/>
      <point x="697.1795999999999" y="363.322"/>
      <point x="578.5368000000001" y="590.0"/>
      <point x="378.5992" y="590.0" type="curve" smooth="yes"/>
      <point x="178.036" y="590.0"/>
      <point x="60.0188" y="363.322"/>
      <point x="60.0188" y="0.0" type="curve"/>
      <point x="103.626" y="0.0" type="line"/>
      <point x="103.626" y="370.322"/>
      <point x="202.0664" y="558.9879999999999"/>
    </contour>
  </outline>
</glyph>
<glyph name="minus.sub" format="2">
  <advance width="464.4"/>
  <outline>
    <contour>
      <point x="406.12" y="95.414" type="line"/>
      <point x="58.28" y="95.414" type="line"/>
      <point x="58.28" y="64.586" type="line"/>
      <point x="406.12" y="64.586" type="line"/>
    </contour>
  </outline>
</glyph>
<glyph name="peseta.proportional" format="2">
  <advance width="914.5283999999999"/>
  <outline>
    <contour>
      <point x="52.6084" y="0.0" type="line"/>
      <point x="326.86" y="0.0" type="line"/>
      <point x="326.86" y="30.782" type="line"/>
      <point x="295.26" y="30.782" type="line" smooth="yes"/>
      <point x="255.4916" y="30.782"/>
      <point x="205.3432" y="33.782000000000004"/>
      <point x="205.3432" y="40.782000000000004" type="curve" smooth="yes"/>
      <point x="205.3432" y="278.81600000000003" type="line"/>
      <point x="257.1476" y="278.81600000000003" type="line" smooth="yes"/>
      <point x="453.1984" y="278.81600000000003"/>
      <point x="547.8824" y="367.908"/>
      <point x="547.8824" y="497.908" type="curve" smooth="yes"/>
      <point x="547.8824" y="627.908"/>
      <point x="458.03559999999993" y="710.0"/>
      <point x="263.06759999999997" y="710.0" type="curve" smooth="yes"/>
      <point x="52.6084" y="710.0" type="line"/>
      <point x="52.6084" y="679.218" type="line"/>
      <point x="65.44839999999999" y="679.218" type="line" smooth="yes"/>
      <point x="122.9308" y="679.218"/>
      <point x="164.8648" y="672.218"/>
      <point x="164.8648" y="643.218" type="curve" smooth="yes"/>
      <point x="164.8648" y="66.782" type="line" smooth="yes"/>
      <point x="164.8648" y="37.782000000000004"/>
      <point x="122.9308" y="30.782"/>
      <point x="65.44839999999999" y="30.782" type="curve" smooth="yes"/>
      <point x="52.6084" y="30.782" type="line"/>
    </contour>
    <contour>
      <point x="263.2332" y="678.7579999999999" type="line" smooth="yes"/>
      <point x="431.2904" y="678.7579999999999"/>
      <point x="504.0268" y="612.126"/>
      <point x="504.0268" y="496.908" type="curve" smooth="yes"/>
      <point x="504.0268" y="383.598"/>
      <point x="432.3732" y="309.966"/>
      <point x="257.3132" y="309.966" type="curve" smooth="yes"/>
      <point x="205.3432" y="309.966" type="line"/>
      <point x="205.3432" y="678.7579999999999" type="line"/>
    </contour>
    <contour>
      <point x="512.2059999999999" y="476.758" type="line"/>
      <point x="870.2236" y="476.758" type="line"/>
      <point x="870.2236" y="508.0" type="line"/>
      <point x="694.9200000000001" y="508.0" type="line"/>
      <point x="658.9364" y="553.0" type="line"/>
      <point x="658.9364" y="512.0"/>
      <point x="623.1312" y="503.0"/>
      <point x="552.1464000000001" y="503.0" type="curve" smooth="yes"/>
      <point x="512.2059999999999" y="503.0" type="line"/>
    </contour>
    <contour>
      <point x="692.0284" y="133.322" type="curve" smooth="yes"/>
      <point x="692.0284" y="648.0" type="line"/>
      <point x="658.9364" y="648.0" type="line"/>
      <point x="658.9364" y="500.0" type="line"/>
      <point x="651.0532000000001" y="492.0" type="line"/>
      <point x="651.0532000000001" y="133.276" type="line" smooth="yes"/>
      <point x="651.0532000000001" y="25.494"/>
      <point x="721.8484" y="-11.0"/>
      <point x="800.6464000000001" y="-11.0" type="curve" smooth="yes"/>
      <point x="835.7432000000001" y="-11.0"/>
      <point x="864.2144000000001" y="-4.138"/>
      <point x="885.3884" y="3.724" type="curve"/>
      <point x="885.3884" y="34.966" type="line"/>
      <point x="864.966" y="30.058"/>
      <point x="841.8288" y="23.242"/>
      <point x="809.9436000000001" y="23.242" type="curve" smooth="yes"/>
      <point x="742.5016" y="23.242"/>
      <point x="692.0284" y="54.736000000000004"/>
    </contour>
  </outline>
</glyph>
<glyph name="plus.sup" format="2">
  <advance width="464.4"/>
  <outline>
    <contour>
      <point x="214.7648" y="706.828" type="line"/>
      <point x="214.7648" y="414.0" type="line"/>
      <point x="247.17520000000002" y="414.0" type="line"/>
      <point x="247.17520000000002" y="706.828" type="line"/>
    </contour>
    <contour>
      <point x="390.9552" y="575.828" type="line"/>
      <point x="73.4448" y="575.828" type="line"/>
      <point x="73.4448" y="545.0" type="line"/>
      <point x="390.9552" y="545.0" type="line"/>
    </contour>
  </outline>
</glyph>
<glyph name="ringhalfleft" format="2">
  <advance width="580.5"/>
  <anchor x="290.48" y="566.0" name="_top"/>
  <outline>
    <contour>
      <point x="290.3144" y="611.77" type="line"/>
      <point x="249.16879999999998" y="611.77"/>
      <point x="216.1548" y="633.7239999999999"/>
      <point x="216.1548" y="676.678" type="curve" smooth="yes"/>
      <point x="216.1548" y="719.6320000000001"/>
      <point x="249.16879999999998" y="741.586"/>
      <point x="290.3144" y="741.586" type="curve"/>
      <point x="290.3144" y="768.0" type="line"/>
      <point x="226.108" y="768.0"/>
      <point x="174.32760000000002" y="734.862"/>
      <point x="174.32760000000002" y="676.678" type="curve" smooth="yes"/>
      <point x="174.32760000000002" y="618.494"/>
      <point x="227.19080000000002" y="585.356"/>
      <point x="290.3144" y="585.356" type="curve"/>
    </contour>
  </outline>
</glyph>
<glyph name="ringhalfright" format="2">
  <advance width="580.5"/>
  <anchor x="290.56280000000004" y="566.0" name="_top"/>
  <outline>
    <contour>
      <point x="290.7284" y="768.0" type="line"/>
      <point x="354.392" y="768.0"/>
      <point x="406.17240000000004" y="734.862"/>
      <point x="406.17240000000004" y="676.678" type="curve" smooth="yes"/>
      <point x="406.17240000000004" y="618.494"/>
      <point x="353.30920000000003" y="585.356"/>
      <point x="290.7284" y="585.356" type="curve"/>
      <point x="290.7284" y="611.77" type="line"/>
      <point x="331.3312" y="611.77"/>
      <point x="364.3452" y="633.7239999999999"/>
      <point x="364.3452" y="676.678" type="curve" smooth="yes"/>
      <point x="364.3452" y="719.6320000000001"/>
      <point x="331.3312" y="741.586"/>
      <point x="290.7284" y="741.586" type="curve"/>
    </contour>
  </outline>
</glyph>
<glyph name="sterling.proportional" format="2">
  <advance width="715.7280000000001"/>
  <outline>
    <contour>
      <point x="60.6112" y="354.50600000000003" type="line"/>
      <point x="60.6112" y="323.402" type="line"/>
      <point x="521.4684" y="323.402" type="line"/>
      <point x="521.4684" y="354.50600000000003" type="line"/>
    </contour>
    <contour>
      <point x="481.8656" y="-2.368" type="curve" smooth="yes"/>
      <point x="575.7152" y="-2.368"/>
      <point x="634.9124" y="48.334"/>
      <point x="664.9631999999999" y="136.794" type="curve"/>
      <point x="635.4268" y="150.978" type="line"/>
      <point x="608.3328" y="74.932"/>
      <point x="565.6076" y="39.932"/>
      <point x="490.4112" y="39.932" type="curve" smooth="yes"/>
      <point x="403.6296" y="39.932"/>
      <point x="333.05240000000003" y="84.104"/>
      <point x="259.6316" y="151.966" type="curve"/>
      <point x="257.5792" y="154.41400000000002"/>
      <point x="258.2352" y="133.276"/>
      <point x="241.776" y="120.04599999999999" type="curve"/>
      <point x="322.838" y="50.217999999999996"/>
      <point x="386.73720000000003" y="-2.368"/>
    </contour>
    <contour>
      <point x="393.9056" y="686.62" type="curve" smooth="yes"/>
      <point x="486.1536" y="686.62"/>
      <point x="546.9304" y="656.7579999999999"/>
      <point x="579.6132" y="630.3439999999999" type="curve"/>
      <point x="579.696" y="641.126"/>
      <point x="566.856" y="656.586"/>
      <point x="556.2148" y="670.9879999999999" type="curve"/>
      <point x="556.2148" y="572.62" type="line"/>
      <point x="607.0208" y="572.62" type="line"/>
      <point x="607.0208" y="660.816" type="line"/>
      <point x="575.0464000000001" y="683.954"/>
      <point x="502.25759999999997" y="718.0"/>
      <point x="394.07120000000003" y="718.0" type="curve" smooth="yes"/>
      <point x="235.488" y="718.0"/>
      <point x="135.3044" y="639.954"/>
      <point x="135.3044" y="524.6320000000001" type="curve" smooth="yes"/>
      <point x="135.3044" y="399.322"/>
      <point x="243.18359999999998" y="304.56399999999996"/>
      <point x="243.18359999999998" y="209.598" type="curve" smooth="yes"/>
      <point x="243.18359999999998" y="104.748"/>
      <point x="179.41320000000002" y="56.748"/>
      <point x="61.853199999999994" y="33.15" type="curve"/>
      <point x="61.853199999999994" y="1.3099999999999998" type="line"/>
      <point x="200.818" y="26.908"/>
      <point x="281.1956" y="94.05799999999999"/>
      <point x="281.1956" y="210.288" type="curve" smooth="yes"/>
      <point x="281.1956" y="323.334"/>
      <point x="179.49120000000002" y="408.092"/>
      <point x="179.49120000000002" y="524.862" type="curve" smooth="yes"/>
      <point x="179.49120000000002" y="628.126"/>
      <point x="260.5248" y="686.62"/>
    </contour>
  </outline>
</glyph>
<glyph name="three.lin" format="2">
  <advance width="650.1600000000001"/>
  <outline>
    <contour>
      <point x="326.322" y="686.62" type="curve" smooth="yes"/>
      <point x="221.1576" y="686.62"/>
      <point x="156.6724" y="648.62"/>
      <point x="125.15520000000001" y="614.068" type="curve"/>
      <point x="128.698" y="640.62"/>
      <point x="150.4148" y="664.62"/>
      <point x="149.9308" y="666.7579999999999" type="curve"/>
      <point x="149.9308" y="563.62" type="line"/>
      <point x="98.4992" y="563.62" type="line"/>
      <point x="98.4992" y="644.218" type="line"/>
      <point x="133.72480000000002" y="672.862"/>
      <point x="204.7684" y="718.0"/>
      <point x="326.0736" y="718.0" type="curve" smooth="yes"/>
      <point x="458.56280000000004" y="718.0"/>
      <point x="553.4888" y="650.954"/>
      <point x="553.4888" y="549.862" type="curve" smooth="yes"/>
      <point x="553.4888" y="426.69"/>
      <point x="427.1808" y="369.092"/>
      <point x="303.0128" y="369.092" type="curve"/>
      <point x="323.4416" y="379.046" type="line"/>
      <point x="506.8896" y="379.046"/>
      <point x="590.3004000000001" y="299.81600000000003"/>
      <point x="590.3004000000001" y="195.954" type="curve" smooth="yes"/>
      <point x="590.3004000000001" y="75.816"/>
      <point x="478.32280000000003" y="-10.0"/>
      <point x="324.908" y="-10.0" type="curve" smooth="yes"/>
      <point x="176.208" y="-10.0"/>
      <point x="81.3712" y="62.046"/>
      <point x="37.6396" y="155.90800000000002" type="curve"/>
      <point x="63.13" y="179.828" type="line"/>
      <point x="98.97840000000001" y="102.15"/>
      <point x="180.8032" y="21.38"/>
      <point x="324.908" y="21.38" type="curve" smooth="yes"/>
      <point x="457.8288" y="21.38"/>
      <point x="546.1136" y="85.644"/>
      <point x="546.1136" y="195.954" type="curve" smooth="yes"/>
      <point x="546.1136" y="295.402"/>
      <point x="470.9172" y="358.264"/>
      <point x="300.5528" y="358.264" type="curve" smooth="yes"/>
      <point x="229.4264" y="358.264" type="line"/>
      <point x="229.4264" y="389.644" type="line"/>
      <point x="299.58320000000003" y="389.644" type="line" smooth="yes"/>
      <point x="419.3088" y="389.644"/>
      <point x="508.97080000000005" y="439.368"/>
      <point x="508.97080000000005" y="537.862" type="curve" smooth="yes"/>
      <point x="508.97080000000005" y="643.942"/>
      <point x="428.192" y="686.62"/>
    </contour>
  </outline>
</glyph>
<glyph name="two.den" format="2">
  <advance width="375.98"/>
  <outline>
    <contour>
      <point x="219.6912" y="29.242" type="line" smooth="yes"/>
      <point x="272.0512" y="29.242"/>
      <point x="291.8112" y="33.242000000000004"/>
      <point x="294.2712" y="52.242000000000004" type="curve" smooth="yes"/>
      <point x="299.73120000000006" y="91.242" type="line"/>
      <point x="328.3808" y="91.242" type="line"/>
      <point x="328.3808" y="0.0" type="line"/>
      <point x="30.14" y="0.0" type="line"/>
      <point x="30.14" y="34.472" type="line"/>
      <point x="154.4848" y="99.012"/>
      <point x="264.5756" y="162.633604060504"/>
      <point x="264.5756" y="247.046" type="curve" smooth="yes"/>
      <point x="264.5756" y="294.77"/>
      <point x="229.982" y="315.586"/>
      <point x="178.0884" y="315.586" type="curve" smooth="yes"/>
      <point x="133.4828" y="315.586"/>
      <point x="97.00880000000001" y="298.31"/>
      <point x="78.626" y="269.49399999999997" type="curve"/>
      <point x="78.4604" y="290.448"/>
      <point x="89.92320000000001" y="303.77"/>
      <point x="91.0584" y="303.81600000000003" type="curve"/>
      <point x="91.0584" y="236.046" type="line"/>
      <point x="43.394" y="236.046" type="line"/>
      <point x="43.394" y="288.046" type="line"/>
      <point x="64.0712" y="317.046"/>
      <point x="112.5572" y="346.0"/>
      <point x="178.5088" y="346.0" type="curve" smooth="yes"/>
      <point x="263.88919999999996" y="346.0"/>
      <point x="313.6236" y="310.046"/>
      <point x="313.6236" y="245.046" type="curve" smooth="yes"/>
      <point x="313.6236" y="156.5496"/>
      <point x="179.5088" y="73.828"/>
      <point x="65.2" y="21.874" type="curve"/>
      <point x="59.28" y="22.874"/>
      <point x="59.36280000000001" y="27.196"/>
      <point x="60.28" y="29.242" type="curve"/>
    </contour>
  </outline>
</glyph>
<glyph name="two.old" format="2">
  <advance width="650.1600000000001"/>
  <outline>
    <contour>
      <point x="326.4048" y="526.712" type="curve" smooth="yes"/>
      <point x="231.69680000000002" y="526.712"/>
      <point x="162.6228" y="492.39"/>
      <point x="112.48080000000002" y="448.114" type="curve"/>
      <point x="131.6484" y="480.48199999999997"/>
      <point x="119.70160000000001" y="485.356"/>
      <point x="146.2988" y="489.264" type="curve"/>
      <point x="146.2988" y="391.85" type="line"/>
      <point x="94.8672" y="391.85" type="line"/>
      <point x="94.8672" y="481.896" type="line"/>
      <point x="137.67520000000002" y="514.54"/>
      <point x="214.8476" y="558.0"/>
      <point x="326.4048" y="558.0" type="curve" smooth="yes"/>
      <point x="460.8572" y="558.0"/>
      <point x="546.6516" y="496.13800000000003"/>
      <point x="546.6516" y="397.724" type="curve" smooth="yes"/>
      <point x="546.6516" y="241.322"/>
      <point x="313.31640000000004" y="127.184"/>
      <point x="109.7532" y="24.92" type="curve"/>
      <point x="106.79" y="27.058"/>
      <point x="104.33" y="28.61"/>
      <point x="106.5416" y="31.932000000000002" type="curve"/>
      <point x="385.85040000000004" y="31.932000000000002" type="line" smooth="yes"/>
      <point x="486.31280000000004" y="31.932000000000002"/>
      <point x="527.3296" y="38.886"/>
      <point x="532.1668" y="74.748" type="curve" smooth="yes"/>
      <point x="542.5468" y="156.828" type="line"/>
      <point x="570.2092" y="156.828" type="line"/>
      <point x="570.2092" y="0.0" type="line"/>
      <point x="73.9416" y="0.0" type="line"/>
      <point x="73.9416" y="38.438" type="line"/>
      <point x="300.5768" y="157.104"/>
      <point x="502.46479999999997" y="247.966"/>
      <point x="502.46479999999997" y="397.86199999999997" type="curve" smooth="yes"/>
      <point x="502.46479999999997" y="484.264"/>
      <point x="433.44320000000005" y="526.712"/>
    </contour>
  </outline>
</glyph>
<glyph name="uni20B4.proportional" format="2">
  <advance width="680.2888"/>
  <outline>
    <contour>
      <point x="30.8088" y="456.046" type="line"/>
      <point x="30.8088" y="424.85" type="line"/>
      <point x="649.48" y="424.85" type="line"/>
      <point x="649.48" y="456.046" type="line"/>
    </contour>
    <contour>
      <point x="30.8088" y="315.77" type="line"/>
      <point x="30.8088" y="284.574" type="line"/>
      <point x="649.48" y="284.574" type="line"/>
      <point x="649.48" y="315.77" type="line"/>
    </contour>
    <contour>
      <point x="344.3192" y="688.666" type="curve" smooth="yes"/>
      <point x="464.21040000000005" y="688.666"/>
      <point x="526.4775999999999" y="643.574"/>
      <point x="526.4775999999999" y="566.586" type="curve" smooth="yes"/>
      <point x="526.4775999999999" y="511.08"/>
      <point x="502.37080000000003" y="470.988"/>
      <point x="470.9348" y="443.344" type="curve"/>
      <point x="522.7516" y="443.988" type="line"/>
      <point x="549.6864" y="472.988"/>
      <point x="568.0324" y="514.264"/>
      <point x="568.0324" y="562.54" type="curve" smooth="yes"/>
      <point x="568.0324" y="659.6320000000001"/>
      <point x="486.7808" y="720.0"/>
      <point x="343.8224" y="720.0" type="curve" smooth="yes"/>
      <point x="233.01680000000002" y="720.0"/>
      <point x="154.13600000000002" y="681.092"/>
      <point x="120.2812" y="652.184" type="curve"/>
      <point x="120.2812" y="570.62" type="line"/>
      <point x="173.4644" y="570.62" type="line"/>
      <point x="173.4644" y="667.31" type="line"/>
      <point x="157.6548" y="663.448"/>
      <point x="136.9776" y="639.712"/>
      <point x="144.56" y="618.62" type="curve"/>
      <point x="178.8288" y="655.712"/>
      <point x="245.0224" y="688.666"/>
    </contour>
    <contour>
      <point x="342.19680000000005" y="21.38" type="curve" smooth="yes"/>
      <point x="219.3948" y="21.38"/>
      <point x="128.4908" y="74.828"/>
      <point x="128.4908" y="167.23" type="curve" smooth="yes"/>
      <point x="128.4908" y="221.046"/>
      <point x="151.7936" y="263.13800000000003"/>
      <point x="191.32" y="291.276" type="curve"/>
      <point x="138.9888" y="291.18399999999997" type="line"/>
      <point x="105.72640000000001" y="260.0"/>
      <point x="87.5156" y="221.954"/>
      <point x="87.5156" y="173.506" type="curve" smooth="yes"/>
      <point x="87.5156" y="55.23"/>
      <point x="200.0664" y="-10.0"/>
      <point x="342.61080000000004" y="-10.0" type="curve" smooth="yes"/>
      <point x="466.70719999999994" y="-10.0"/>
      <point x="559.9708" y="39.724"/>
      <point x="603.6196" y="80.586" type="curve"/>
      <point x="603.6196" y="165.38" type="line"/>
      <point x="553.0160000000001" y="165.38" type="line"/>
      <point x="553.0160000000001" y="71.586" type="line"/>
      <point x="573.4908" y="77.356"/>
      <point x="588.0888" y="99.736"/>
      <point x="579.5892" y="116.736" type="curve"/>
      <point x="540.4768" y="64.598"/>
      <point x="450.65559999999994" y="21.38"/>
    </contour>
  </outline>
</glyph>
<glyph name="whitediamond" format="2">
  <advance width="722.28"/>
  <outline>
    <contour>
      <point x="664.0" y="313.0" type="line"/>
      <point x="361.14" y="574.0" type="line"/>
      <point x="58.28" y="313.0" type="line"/>
      <point x="361.14" y="52.0" type="line"/>
    </contour>
    <contour>
      <point x="572.58" y="313.0" type="line"/>
      <point x="361.14" y="131.0" type="line"/>
      <point x="149.7" y="313.0" type="line"/>
      <point x="361.14" y="495.0" type="line"/>
    </contour>
  </outline>
</glyph>
<glyph name="whitesquare" format="2">
  <advance width="682.76"/>
  <outline>
    <contour>
      <point x="98.8" y="104.0" type="line"/>
      <point x="583.96" y="104.0" type="line"/>
      <point x="583.96" y="522.0" type="line"/>
      <point x="98.8" y="522.0" type="line"/>
    </contour>
    <contour>
      <point x="162.54000000000002" y="159.0" type="line"/>
      <point x="162.54000000000002" y="467.0" type="line"/>
      <point x="520.22" y="467.0" type="line"/>
      <point x="520.22" y="159.0" type="line"/>
    </contour>
  </outline>
</glyph>
